<?xml version="1.0" standalone="no"?>
<!DOCTYPE svg PUBLIC "-//W3C//DTD SVG 1.1//EN" "http://www.w3.org/Graphics/SVG/1.1/DTD/svg11.dtd" >
<svg xmlns="http://www.w3.org/2000/svg">
<metadata></metadata>
<defs>
<font id="MenuetscriptRegular" horiz-adv-x="720" >
<font-face units-per-em="2048" ascent="1638" descent="-410" />
<missing-glyph horiz-adv-x="415" />
<glyph horiz-adv-x="0" />
<glyph horiz-adv-x="2048" />
<glyph unicode=" "  horiz-adv-x="415" />
<glyph unicode="&#x09;" horiz-adv-x="415" />
<glyph unicode="&#xa0;" horiz-adv-x="415" />
<glyph unicode="!" d="M-174 129q0 2 8 8l60 41q46 26 57 27q18 0 33.5 -28.5t15.5 -65.5q0 -51 -27 -62q-16 -14 -27 -21q-3 -2 -29.5 -24t-33.5 -22q-6 0 -6 8l10 57q0 53 -41 70l-16 6q-4 4 -4 6zM-78 330q0 17 12 59l195 760q9 56 13.5 73t4.5 36.5t-11 28.5t-42 13v3q-12 0 -12 7t10 13 l160 92q16 10 31 10q20 1 20 -22q0 -12 -6 -27v-4l-287 -993q-5 -16 -49 -39l-29 -16l-8 -2q-2 4 -2 8z" />
<glyph unicode="&#x22;" horiz-adv-x="757" d="M195 944q0 66 47 66t47 -66v-39l-4 -41v-28l-21 -426h-43l-20 424l-2 28zM469 944q0 66 48 66t48 -66l-2 -41l-4 -43v-29l-20 -421h-43l-21 426v10z" />
<glyph unicode="#" horiz-adv-x="839" d="M53 330v39h183l49 272h-174v39h182l61 330h43l-61 -330h229l62 330h41l-62 -330h176v-39h-182l-51 -272h176v-39h-182l-62 -330h-43l62 330h-230l-61 -330h-41l59 330h-174zM279 369h229l49 272h-229z" />
<glyph unicode="$" horiz-adv-x="796" d="M-283 143q0 4 4 13l39 110l2 2q8 23 15.5 23t7.5 -6q-8 -60 -8 -64q0 -61 35.5 -105t95.5 -59l149 435q-151 143 -151 253q0 95 74.5 169.5t171.5 74.5q41 0 73 -8l45 135v2q6 14 13 15h34q6 0 7 -7l-2 -8l-3 -2l-51 -147q56 -11 112 -46.5t56 -43.5t-6 -23l-49 -115 q0 -2 -7 -2t-10 30q-5 51 -31 95.5t-77 69.5l-123 -359q84 -90 119 -152.5t35 -126.5t-24.5 -116.5t-67.5 -92.5q-91 -85 -220 -85h-19q-7 0 -17 2l-43 -137v-2q-6 -14 -13 -15h-35q-1 0 -6 5v8l52 151q-72 29 -124 68t-53 61zM-47 43q14 -4 21 -4h14q39 0 84 22 q112 58 112 187q0 87 -60 165q-11 15 -34 42zM-6 803q0 -52 37 -107q19 -32 69 -84l113 338q-23 10 -76 10.5t-98 -44t-45 -113.5z" />
<glyph unicode="%" horiz-adv-x="1214" d="M-299 537q0 168 107.5 307t216.5 139q72 0 118.5 -62.5t46.5 -153.5t-39.5 -194.5t-117.5 -178.5t-157 -75t-127 60.5t-48 157.5zM-233 588q0 -219 145 -219q94 0 150.5 94t56.5 248q0 211 -142 211q-94 0 -152 -92.5t-58 -241.5zM-104 -4l702 989h70l-703 -989h-69z M375 209q0 168 108.5 308t214.5 140q72 0 119 -63.5t47 -151.5t-40 -193.5t-118.5 -181t-157.5 -75.5t-126 60.5t-47 156.5zM440 260q0 -217 146 -217q94 0 150.5 93t56.5 249q0 211 -142 211q-90 0 -141 -78q-70 -98 -70 -258z" />
<glyph unicode="&#x26;" horiz-adv-x="1478" d="M-246 218.5q0 85.5 26.5 143.5t72 108t68 72.5t47.5 43.5q45 37 122 92q-14 54 -14 127q0 163 59 242q41 59 172 149q52 31 94.5 31t76.5 -42t34 -98q0 -94 -92 -198q-87 -93 -133.5 -127.5t-89.5 -65.5q6 -18 10 -30.5t9 -25.5q49 -127 85 -191q49 -89 80 -127 q94 113 94 276q0 68 -14 107l-10 26q0 8 8 8q16 0 27.5 -45t11.5 -104q0 -151 -103 -285q204 -229 421.5 -229t217.5 205q0 72 -27.5 145.5t-66.5 118.5t-93 82t-82 46t-28 14t13.5 4t58.5 -17q149 -55 215 -178q47 -87 47 -206.5t-84 -201.5t-221 -82q-121 0 -254 74 q-78 43 -168 133q-229 -211 -391 -211q-88 0 -143.5 65.5t-55.5 151zM-137 283q0 -94 41 -150.5t112.5 -56.5t137 38t93.5 58.5t75 65.5q-56 66 -92 123q-65 103 -119 255l-11 29q-31 -23 -50 -37t-32.5 -26.5t-25.5 -24.5l-31 -31q-98 -102 -98 -243zM176 874q0 -48 5 -79 t5 -41.5t4 -26.5q31 25 52.5 41t38 31.5t33.5 32.5l38 38q41 41 57.5 78t16.5 90t-26.5 89t-62.5 36q-70 0 -116 -65q-45 -70 -45 -224z" />
<glyph unicode="'" horiz-adv-x="569" d="M238 926v18q0 66 47 66t47 -66v-18q0 -11 -2 -27l-2 -41l-21 -448h-45l-18 417l-2 33l-2 37q-2 16 -2 29z" />
<glyph unicode="(" horiz-adv-x="530" d="M-131 534.5q0 125.5 38 254.5q76 258 232 454q91 122 169 183q22 16 32 16t10 -8t-28 -41q-300 -323 -358 -905q-9 -89 -9 -146q0 -172 14.5 -240.5t28.5 -128.5l12 -51q4 -16 4 -23t-10 -8q-16 0 -43 78t-38 122t-20 98.5t-17 110.5q-17 109 -17 234.5z" />
<glyph unicode=")" horiz-adv-x="530" d="M-332 -104.5q0 10.5 14 23.5q14 14 51 58t77 103q80 113 134 262q119 327 119 668q0 185 -34 315l-23 80q-2 8 -2 20t7 13q30 2 81 -199q55 -215 55 -401t-36 -308q-73 -246 -232 -446q-95 -128 -169 -182q-23 -17 -32.5 -17t-9.5 10.5z" />
<glyph unicode="*" horiz-adv-x="833" d="M0 1159q0 25 22.5 37.5t69.5 17.5t72.5 8.5t25.5 14t-12 17t-51 14.5t-53.5 18t-14.5 29.5t13.5 33t31.5 13.5q40 0 58 -37l16 -33q12 -27 27 -26q10 0 13 7t7 38t18.5 81t48.5 50t34 -37q0 -14 -8.5 -26.5t-35.5 -40.5q-40 -43 -40 -60.5t8 -17.5q21 0 39 16t37 34 q29 28 43 39t37 11q38 0 38 -37q0 -27 -18 -35q-11 -11 -38.5 -14.5t-51.5 -7.5l-29 -6q-53 -10 -53 -24.5t13.5 -21t51 -10.5t53 -14t15.5 -31.5t-13.5 -35t-32.5 -13.5t-32.5 12.5t-26.5 33.5q-15 26 -22.5 37t-19.5 11q-18 0 -26 -28q-3 -11 -7 -42.5t-5 -43.5 q-4 -54 -44.5 -54t-40.5 35q0 27 35 62l16 16q25 28 25 41.5t-13 13.5q-12 0 -62.5 -33.5t-59.5 -38t-19 -4.5q-39 0 -39 31z" />
<glyph unicode="+" horiz-adv-x="1214" d="M-219 465v57h467v465h61v-465h469v-57h-469v-465h-61v465h-467z" />
<glyph unicode="," horiz-adv-x="417" d="M-250 -227q0 4 12 16l37 45q49 61 49 138t-15 96t-79 26v15l125 92q6 6 13 6t27 -33q36 -59 36 -121q0 -143 -121 -241l-24 -21q-35 -29 -50 -29q-10 0 -10 11z" />
<glyph unicode="-" horiz-adv-x="681" d="M-154 309q0 13 35 61t49 61q26 25 86 30q137 13 149.5 19.5t22.5 23.5q4 8 7.5 12t5.5 7t2 4q0 6 12 8q6 -1 6 -8t-8 -21q-9 -15 -17.5 -35.5t-14 -28.5t-9.5 -14q-29 -39 -78 -41l-55 -4l-49 -6q-47 -6 -68 -15q-26 -12 -44.5 -35.5t-24.5 -23.5t-7 6z" />
<glyph unicode="." horiz-adv-x="417" d="M-240 135q0 6 17 17l2 2l80 51q8 6 19 6t22 -12q37 -53 37 -90.5t-15.5 -58.5t-56.5 -44l-43 -24q-10 -6 -15 -7q-4 0 -4 5q0 3 6.5 28t6.5 54.5t-33 52.5l-19 10q-4 4 -4 10z" />
<glyph unicode="/" horiz-adv-x="569" d="M-334 0l764 1442h80l-764 -1442h-80z" />
<glyph unicode="0" horiz-adv-x="833" d="M-258 313q0 258 178 484q135 172 275 172q104 0 172.5 -92t68.5 -261q0 -88 -48 -218t-118 -224q-133 -180 -288 -180q-105 0 -172 93q-68 96 -68 226zM-162 428q0 -342 195 -342q129 0 221 142q94 146 94 364q0 122 -59.5 208.5t-157.5 86.5q-122 0 -208 -141 q-85 -140 -85 -318z" />
<glyph unicode="1" horiz-adv-x="493" d="M-225 20q0 1 4 25l145 651q19 88 19 138t-37 51q-14 0 -39 -17q-27 -12 -45 -26t-29 -15q-6 0 -6 9.5t18 21.5l27 21l35 24q37 25 59.5 41.5t39.5 24.5q28 14 48 14q45 0 45 -74q0 -38 -12 -98l-166 -793v-2q-6 -16 -16 -16h-78q-12 0 -12 20z" />
<glyph unicode="2" d="M-365 18q0 8 21 33l354 389q102 111 142.5 178.5t40.5 128t-48.5 103.5t-132 43t-151.5 -68l-25 -24q-4 -4 -8 -4t-4 5q0 10 15 35.5t29 52.5q22 44 62.5 73t134 28.5t163 -62t69.5 -155.5q0 -83 -35 -129q-44 -59 -131 -153l-356 -369l75 -4l95 -6l153 -11q31 -2 46 -2 h26q57 0 104 19l25 10q4 2 10 2q13 0 13 -12q0 -4 -11 -25l-51 -84q-6 -12 -47 -12l-27 2q-39 2 -67.5 2t-46.5 2l-168 12q-16 2 -41 2h-85l-102 -12l-24 -4q-16 0 -17 16z" />
<glyph unicode="3" horiz-adv-x="757" d="M-252 174q0 64 45 107q20 16 33.5 16t13.5 -12v-9q-4 -16 -4 -36q0 -78 49 -126t112.5 -48t105.5 18t73 52q66 72 66 168.5t-54.5 149t-151.5 52.5t-163 -47q-10 -6 -12 -6q-12 0 -13 12q0 8 7 14l381 375h-224t-93 -2t-21 -4q-30 -7 -35 -12q-4 -4 -6 -5.5t-9 -9.5 l-8 -4q-8 0 -8 6l4 13l74 116l55 -4h250l96 4h29l6 2q10 0 10 -8t-20 -28l-318 -326q32 8 78 8q109 0 174.5 -58.5t65.5 -141.5q0 -160 -123 -283q-117 -121 -254 -121q-88 0 -149.5 51t-61.5 127z" />
<glyph unicode="4" d="M-285 370.5q0 46.5 69 162.5q133 221 304 376q84 78 141 78q31 0 49.5 -21.5t18.5 -47t-4 -48t-8 -45.5l-103 -438h137q16 0 17 -10l-2 -2q0 -4 -15 -33l-12 -27q-6 -12 -26 -12h-115l-62 -278v-5q-6 -20 -18 -20h-76q-14 0 -14 7t2 9v2l72 281h-246q-63 0 -86 12.5 t-23 59zM-195 438q0 -45 37 -51q13 -2 45 -2h201l59 268q29 110 29 199q0 33 -24 33q-70 0 -208 -171t-139 -276z" />
<glyph unicode="5" d="M-285 144.5q0 60.5 20.5 110.5t47.5 50q20 0 20 -22q0 -10 -2 -17l-2 -37q0 -61 46 -101t133 -40t149.5 68.5t62.5 180.5t-84 134q-78 23 -172 16l-28 -2q-62 -7 -62 47q0 28 19 91l59 198q15 51 35 92q29 47 92 48h283q8 0 8 -9v-6l-37 -76q-8 -18 -27 -18h-210 q-29 0 -44.5 -11.5t-24.5 -34.5q-23 -60 -31 -91q-17 -74 -17 -104t26 -29h146q65 0 97 -22q67 -45 67 -127q0 -161 -126 -300t-261 -139q-82 0 -132.5 45t-50.5 105.5z" />
<glyph unicode="6" horiz-adv-x="796" d="M-260 249.5q0 106.5 32.5 197t89 173t86 121.5t60.5 72q45 48 152 133h51q-41 -37 -70.5 -63.5t-53.5 -52.5q-27 -28 -94 -123.5t-105 -209.5t-38 -214t48.5 -156.5t116 -56.5t116.5 29.5t85 80.5q77 109 77 271q0 207 -178 206q-56 0 -84.5 -12t-32.5 -12t-4 4 q0 10 41 37q77 51 162 51t138.5 -61.5t53.5 -167.5q0 -182 -138 -345.5t-284 -162.5q-100 0 -163.5 77.5t-63.5 184z" />
<glyph unicode="7" horiz-adv-x="645" d="M-223 834l4 12h2l57 104q22 32 30.5 39.5t19.5 7.5h16l82 -8l65 -2h27l123 6q28 2 75 9.5t54 7.5h12q14 -1 14 -13l-2 -8l-51 -84q-75 -121 -135.5 -250t-92.5 -207q-41 -100 -80.5 -207.5t-50.5 -136.5q-13 -32 -20.5 -61t-11.5 -36t-14 -7h-60q-6 0 -6 9t3 22.5 t11 36.5q65 195 240 554q49 101 107 207l28 54h-305q-16 -2 -29.5 -2t-32 -4t-46.5 -33l-15 -15q-4 -6 -11 -6t-7 11z" />
<glyph unicode="8" d="M-285 231q0 162 236 267q-57 35 -80 69.5t-23 92.5t25 111.5t67 93.5q89 85 199.5 85t168 -51t57.5 -134t-58.5 -149.5t-146.5 -87.5q48 -26 71 -56q52 -67 52 -139.5t-28 -133t-72 -106.5q-99 -103 -222 -103q-98 0 -173 72q-73 69 -73 169zM-180 251q0 -85 53 -138.5 t139 -53.5t143.5 54.5t57.5 139t-61.5 152.5t-153.5 80q-76 -14 -127 -81.5t-51 -152.5zM-72 733q0 -76 50.5 -126t123 -50t118.5 54t46 130t-48 120t-122 44t-121 -48t-47 -124z" />
<glyph unicode="9" horiz-adv-x="796" d="M-231 480q0 182 151 358q138 159 273 159q95 0 159 -81t64 -186t-30 -193t-80 -167q-84 -133 -169 -223q-158 -167 -188 -167q-20 0 -21 16v6q2 2 14.5 13.5t53.5 50.5q117 106 213 274t96 330q0 168 -126 230q-38 18 -79 18t-82 -31t-74 -82q-69 -109 -69 -237 q0 -242 160 -242q68 0 108 28l21 15q10 8 17 8t7 -6t-23.5 -34t-82.5 -53.5t-130 -25.5t-127 65.5t-56 156.5z" />
<glyph unicode=":" horiz-adv-x="417" d="M-240 135q0 6 17 17l2 2l80 51q8 6 19 6q25 0 42 -46t17 -70q0 -49 -72 -89l-43 -24q-10 -6 -15 -7q-4 0 -4 7v2l7 24v6q6 12 6 44t-33 57l-19 10q-4 4 -4 10zM-145 644q0 10 20 20l78 49q10 8 21 8t22 -12q35 -50 35 -90t-15.5 -59t-56.5 -44l-41 -24q-10 -6 -14 -7 q-6 0 -6 7l6 24q6 24 6 43q0 47 -33 66l-16 10q-6 2 -6 9z" />
<glyph unicode=";" horiz-adv-x="417" d="M-252 94v15l127 92q6 6 12 6t27 -33q37 -58 37 -131.5t-39 -131.5t-68 -87q-68 -61 -90 -62q-4 0 -6 7.5t3 13.5t26 31q31 37 49.5 75.5t18 97t-11.5 73.5q-19 27 -85 34zM-186 464q0 5 2 5l92 63q0 4 5 6.5t10 6.5t11 4q12 0 18.5 -15.5t9.5 -23.5t8 -22q12 -34 12 -56 q0 -31 -72 -72q-14 -10 -22.5 -14t-13.5 -9t-9 -5t-6 2v4q10 35 10 55q0 53 -49 66q-6 0 -6 5z" />
<glyph unicode="&#x3c;" horiz-adv-x="1214" d="M-219 461v61l997 420v-63l-925 -387l925 -383v-64z" />
<glyph unicode="=" horiz-adv-x="1214" d="M-219 276v58h997v-58h-997zM-219 653v58h997v-58h-997z" />
<glyph unicode="&#x3e;" horiz-adv-x="1214" d="M-219 45v64l926 383l-926 387v63l997 -420v-61z" />
<glyph unicode="?" horiz-adv-x="948" d="M-61 635q0 96 77 203q44 61 100 101t126 86q137 91 137 204q0 51 -24.5 82.5t-56.5 31.5q-46 0 -112 -45l-24 -16q-6 -6 -10 -6q-7 0 -7 9t42 51q81 81 151.5 81t113 -38t42.5 -84t-15 -68q-47 -96 -137 -164l-98 -74q-102 -78 -147.5 -149.5t-45.5 -153.5t49.5 -135 t121 -53t126.5 41t72 104q2 10 12 10t10 -13t-12 -44q-36 -93 -134 -148q-65 -36 -122 -36t-98 17t-72 48q-65 65 -65 158zM-20 113q-25 13 14 32l82 54l2 2l10 6q8 0 23 -19q32 -41 32 -94q0 -31 -32 -57q-61 -57 -101 -57q-6 0 -6 5q0 7 7 22t7 36q0 47 -38 70z" />
<glyph unicode="@" horiz-adv-x="1576" d="M55 678q0 160 66.5 303t191.5 254q236 207 555 207q291 0 471 -161q183 -164 183 -413t-174 -446q-103 -107 -211 -107q-78 0 -123 49.5t-45 139.5q-82 -188 -240 -189q-109 0 -178 82q-70 83 -70 190q0 211 150 363q121 125 254 125q72 0 110 -34t50 -57t22 -64l39 133 h59l-71 -242q-66 -218 -70 -260.5t-4 -63.5q0 -59 33.5 -94t89.5 -35q96 0 175 90q161 185 161 416q0 236 -168 384q-171 151 -434 151q-158 0 -296.5 -56.5t-240.5 -154.5t-161.5 -230.5t-59.5 -276.5t53 -263t148 -206q200 -185 495 -185t551 182l18 -33 q-266 -193 -569 -192q-328 0 -543 197q-217 198 -217 497zM547 580q0 -100 50 -161t136 -61q125 0 199 156q8 16 14 32.5t13.5 37t16.5 50.5t26 86q34 114 34 170t-42 99t-101 43q-121 0 -217 -119q-129 -157 -129 -333z" />
<glyph unicode="A" horiz-adv-x="1687" d="M-260 276q0 123 86 238q49 68 117.5 112t122.5 44q12 0 12 -9t-29 -18q-53 -12 -110 -76q-101 -114 -101 -254q0 -137 58 -207t159 -71q122 0 201 104q59 80 76.5 135.5t32.5 106.5l96 336h-219q-12 0 -13 6q0 14 22.5 36.5t37.5 22.5h194l21 70q65 218 117.5 306.5 t92.5 129.5t94 75q110 69 325 69h194q19 -1 19 -13q0 -20 -15 -20h-78q-18 -14 -40.5 -31t-59.5 -70t-61 -104q-56 -122 -88.5 -241t-47.5 -175h281q16 0 16 -12q0 -7 -16 -24t-22.5 -19t-22.5 -2h-252l-22 -94l-9 -35q-47 -188 -47 -303q0 -197 164 -197q111 0 176.5 86 t75.5 246q2 14 18 14t17 -14q0 -173 -99 -291q-101 -119 -243 -119q-100 0 -156.5 69t-56.5 191q0 123 53 324l33 123h-287l-104 -326q-84 -270 -281 -359q-80 -36 -150.5 -36t-121 20.5t-86.5 56.5q-74 76 -74 199zM578 782h282q83 302 170 449q45 78 114 129q19 14 58 39 h-69q-166 0 -257.5 -63.5t-148.5 -172.5q-69 -130 -96 -214.5t-53 -166.5z" />
<glyph unicode="B" horiz-adv-x="1314" d="M-307 22.5q0 10.5 7 18.5t32 31l39 34q30 27 98 27h21q10 0 20 -2h6l88 -10h31q10 4 37 29q55 55 86 104q78 123 182 627q36 182 68 223q16 20 60 60t77 57q25 8 33 16t12 8l6 -10q0 -4 -2 -6t-4 -6l-33 -35q-65 -74 -121 -322l-53 -239q-56 -243 -164 -377 q-66 -74 -151 -131v-4q245 -49 360 -49q190 0 272 81q78 85 108 223q9 42 9 82t-18.5 75.5t-50.5 62.5q-67 59 -164 59q-75 0 -120 -27q-11 -6 -30.5 -18t-27.5 -12t-9 4q0 14 40 34.5t57 26.5q61 25 171.5 25t185.5 -63.5t75 -167t-51.5 -184.5t-139.5 -141 q-191 -130 -454 -130q-86 0 -158 10l-207 29q-43 6 -76 6q-86 0 -129 -25q-4 -4 -11 -4t-7 10.5zM-76 882.5q0 98.5 49.5 199t132 177t191.5 122.5t212 46t180 -27.5t133 -74.5q118 -100 118 -256q0 -154 -106 -264q-108 -111 -254 -111q-59 0 -99 14.5t-40.5 19.5t5.5 11h7 l6 -2l28 -6q23 -4 45.5 -8t58 -4t84 25.5t84.5 68.5q77 92 77 234.5t-105.5 230.5t-292.5 88q-303 0 -416 -310q-42 -116 -42 -239q0 -118 32 -182l2 -8q0 -10 -10 -11q-15 0 -30 38l-19 48q-31 82 -31 180.5z" />
<glyph unicode="C" horiz-adv-x="1124" d="M-205 979q0 130 112 235q109 101 257 100q20 0 20 -7.5t-3 -10t-27 -4.5q-72 -6 -144 -49q-143 -88 -143 -252q0 -92 51 -164q20 -29 32.5 -40t39.5 -25l24 45q99 187 260 365q27 30 58 59q202 194 352 194q80 0 127 -48t47 -134q0 -174 -160 -330q-145 -141 -372 -199 q-92 -24 -170 -24h-37q-36 0 -64 6q-92 -184 -92 -348.5t69.5 -246t188.5 -81.5q131 0 240 113q20 20 65 82q77 114 112 244q28 104 38 104q16 0 16 -55.5t-40 -152.5t-112.5 -189t-171 -148.5t-202.5 -56.5q-139 0 -218 91t-79 251q0 103 37 238q17 76 67 180 q-178 96 -178 258zM70 739q6 -2 11 -2l56 -6q16 -2 27 -2h20q63 0 140 16.5t137 44t119 76.5t104 106q98 126 98 234q0 66 -44 107t-110 41t-122.5 -29t-109.5 -82q-92 -90 -128.5 -140.5t-55.5 -80t-38 -66.5q-39 -71 -104 -217z" />
<glyph unicode="D" horiz-adv-x="1687" d="M-389 -3q0 5 4 13l90 86q30 25 44.5 27t33 2t29.5 -2l94 -2q140 -4 151 -4q78 0 137.5 47t95 117.5t52 107.5t30.5 84q30 96 55 203.5t33.5 140.5t14.5 60q43 156 141 237q80 69 178 108q25 11 38.5 11t13.5 -9t-19 -16q-16 -2 -53 -22q-84 -45 -127 -131 q-37 -73 -54.5 -141t-26.5 -103t-21 -86l-33 -127q-48 -184 -69 -222t-37 -63q-86 -133 -269 -207q106 -8 165.5 -15t98.5 -11t68 -5t52.5 -2t53.5 -1q145 0 244 41t185.5 144.5t136 245.5t49.5 293.5t-38 255t-118 185.5q-152 158 -404.5 158t-444.5 -198 q-191 -197 -191 -498q0 -50 6 -87l10 -63q6 -47 17 -64q4 -12 4 -14t-4 -6l-7 -2q-27 0 -55 121q-28 105 -28 200q0 258 202 441q220 198 527 198q287 0 460 -167q172 -167 172 -447q0 -346 -254 -584q-125 -117 -274 -171t-344 -54q-77 0 -231 12t-197 14q-77 5 -143 5 q-125 0 -199 -29q-29 -10 -37 -10t-8 5z" />
<glyph unicode="E" horiz-adv-x="1024" d="M-246 681q0 7 4 11l52 64q6 8 10 8t10 -2q12 -4 45 -4h94q6 18 11.5 31.5t9.5 23.5q96 240 338 447q143 125 231 150q39 11 95.5 11t96.5 -38.5t40 -117.5t-44.5 -170t-101.5 -139.5t-101.5 -75t-52.5 -26.5t-8 4t6 8l46 33q86 64 134 145.5t48 163.5q0 141 -139 142 q-119 0 -228 -101q-170 -162 -246 -373q-20 -53 -45 -126h545q8 0 8 -9.5t-21 -25.5t-38.5 -21.5t-58.5 -5.5h-455q-55 -141 -55 -318.5t60 -267.5t171 -90q125 0 234 115q66 72 110.5 165t48.5 169l6 90q0 12 11.5 12t11.5 -18v-23l2 -14q0 -221 -141 -400 q-64 -81 -146 -130.5t-170 -49.5q-131 0 -208.5 106.5t-77.5 284.5q0 214 53 373h-49q-93 0 -133 -18h-7q-6 0 -6 7z" />
<glyph unicode="F" horiz-adv-x="1214" d="M-270 336q0 70 15 115q27 80 112 180q84 92 94 92t10 -7t-23 -32q-63 -70 -93.5 -127.5t-30.5 -161.5q0 -156 87 -246t236 -90q106 0 181 38q167 85 241 370q8 31 17.5 67.5t19.5 86t25 122.5h-242q-6 0 -6 7v6l8 22q8 23 16.5 30t22.5 7h215l10 49q12 59 21.5 102.5 t13.5 71.5l27 148q8 51 22 57l51 29q59 35 72 35q4 -4 4 -7v-4q-2 0 -3 -2t-9 -10q-17 -17 -32 -97q-23 -121 -34 -173l-37 -168l-6 -35h217q15 0 15 -11q0 -18 -10.5 -37t-15.5 -21.5t-19 -2.5h-201q-47 -216 -78 -287t-61.5 -130.5t-88 -122t-127.5 -107.5 q-145 -94 -298 -94q-146 0 -246 100q-92 92 -92 238zM61 938q-1 37 13 83q14 48 36 96q46 97 121 172t156.5 104.5t200.5 29.5l262 -12q148 0 235 29q7 0 7 -8l-2 -9l-15 -41q-4 -10 -7 -19t-7 -18q-8 -18 -33 -18h-53l-96 2l-134 2l-155 10h-41q-140 0 -222 -48t-139 -127 t-79 -169l-19 -73q-8 -27 -18 -27q-11 0 -11 41z" />
<glyph unicode="G" horiz-adv-x="1024" d="M-289 378q0 103 16.5 192t46.5 178q62 190 171 342q117 168 264 259t307 91q86 0 126 -43t40 -122t-12.5 -127t-28.5 -48t-16 16v8q4 16 4 26v19q0 86 -62.5 144.5t-148.5 58.5t-170 -46t-144 -124q-109 -139 -192 -373q-74 -212 -74 -357q0 -277 182 -277q209 0 394 321 q10 20 23.5 44t29.5 56q31 61 31 72.5t-2 16.5l-9 24q-8 32 -8 87t31 107t74 52t43 -53q0 -14 -7 -41q-9 -29 -16 -88q92 -34 92 -134q0 -32 -13 -75t-38 -125t-55.5 -171t-63.5 -160q-65 -136 -161 -259t-206 -191.5t-212 -68.5q-76 0 -139 51q-60 50 -60 117q0 50 24 104 q45 99 72 99q10 0 10 -12q1 -14 -10.5 -38t-11.5 -67q0 -76 54.5 -128t131.5 -52q78 0 167 68q81 62 143 175q103 195 221 572q25 80 25 127q0 49 -23 49q-10 0 -17.5 -12.5t-39 -78t-97 -157.5t-134.5 -165t-162 -121t-154.5 -48t-101.5 24.5t-69 66.5q-65 92 -65 195z" />
<glyph unicode="H" horiz-adv-x="1781" d="M-240 268q0 80 30 157t69 119q75 81 98 81q6 0 6 -7q0 -6 -19.5 -19t-43 -42t-40.5 -63q-38 -74 -38 -141.5t23.5 -124t64.5 -97.5q90 -90 215 -90q86 0 161.5 42t118.5 116t63.5 141.5t28 92t14.5 50t14 54t18 69.5h-252q-12 0 -12 6t2 6l65 58q14 12 49 12h166l25 86 q23 80 36 129t22 81q17 62 32 98q26 64 52 100.5t42 53.5t51 44q-300 -8 -372 -27q-158 -35 -242 -227q-33 -76 -33 -106q0 -8 -16 -8.5t-17 10.5v4l9 37q39 180 159 292q82 82 214 82q63 0 148 -10t104 -10h39q20 0 71 6v-14q-35 -29 -51 -47q-40 -45 -68 -139.5 t-51 -190.5t-51 -203l-13 -47h156q8 23 13 38t22 58q45 119 124 251t178 218t183 86q49 0 81 -32.5t32 -83.5q0 -147 -148 -336q-104 -129 -228 -203q-62 -37 -192 -62q-26 -102 -26 -274q0 -276 173 -277q1 0 3 1q55 0 109.5 36.5t96.5 99.5q93 141 101 318q2 18 3 22.5 t7 4.5q15 0 15 -31v-2q0 -17 -14 -94q-31 -177 -150 -311q-115 -135 -219 -135q-1 0 -1 -1q-104 -1 -162 91t-58 240t34 308h-145q-32 -138 -76 -234q-108 -237 -289 -338q-116 -65 -235 -65q-112 0 -196 87q-83 87 -83 206zM891 686q108 4 166 30q87 41 168 126 q131 143 131 299q0 66 -20.5 94.5t-67.5 28.5q-119 0 -219 -177q-76 -141 -101 -216q-42 -130 -57 -185z" />
<glyph unicode="I" horiz-adv-x="1138" d="M-303 338q0 152 110 266l58 60q16 16 25.5 18t9.5 -6t-9 -17q-119 -117 -118 -256q0 -140 113 -235q114 -96 278 -96q82 0 136 23.5t93 74.5q71 93 129 219q10 23 19.5 42.5t18.5 41t20.5 48t25.5 63.5h-221q-10 0 -10 5t4 9l55 55q8 10 13.5 11.5t25.5 1.5h160 q14 43 25.5 74.5t20.5 62.5q81 279 81 375t-29 128.5t-94 32.5q-133 0 -245 -151q-79 -105 -112 -251q-8 -38 -15 -78q-9 -49 -12 -54.5t-10 -5.5t-7 14q0 41 26 143q44 176 174 328q131 146 264 146q82 0 129.5 -47.5t47.5 -129.5q0 -146 -125 -505l-29 -84h143 q15 -1 15 -6t-11 -23l-24 -37q-10 -20 -27 -20h-125q-16 -32 -28 -62q-81 -161 -168 -268q-98 -125 -199.5 -183.5t-202 -58.5t-170 25.5t-120.5 70.5q-109 95 -109 236z" />
<glyph unicode="J" horiz-adv-x="1251" d="M-270 59q0 100 38 166q49 86 110 141q26 23 36 13q4 0 6 -4q0 -6 -13 -20.5t-29 -32.5q-26 -28 -40 -57q-28 -57 -28 -124t27.5 -141t76.5 -123q92 -92 242 -92q111 0 202 52t151 152.5t95 203t51.5 153.5t29.5 102q21 82 50 234h-207l-12 2q-14 0 -14 5t10 20l47 49l8 4 h191q8 33 15 58.5t13 51.5q62 251 62 350t-31 135t-96 36q-134 0 -238 -129q-74 -90 -108.5 -172t-51 -134.5t-28.5 -102.5q-27 -113 -27 -181v-27q0 -14 -9 -14t-11 14l-8 47q-4 14 -4 30v32q0 271 168 470q122 144 270 206q74 30 141 30q158 0 158 -166 q0 -84 -19.5 -166.5t-27.5 -119.5t-18.5 -74t-22 -79t-27.5 -99h156q8 0 8 -7t-2 -10l-16 -32q-12 -18 -13 -23q-6 -6 -35 -6h-118q-37 -135 -58.5 -215t-39 -134.5t-35 -95t-51 -116.5t-99.5 -155t-145 -137q-165 -122 -342 -122q-144 0 -240 103q-98 106 -98 251z" />
<glyph unicode="K" horiz-adv-x="1781" d="M-252 301q0 155 117 283q58 65 81 65h1q6 0 6 -6q0 -4 -23 -27q-53 -50 -69 -86q-31 -55 -31 -133t22.5 -136t62.5 -102q85 -93 210 -93q150 0 244 149q59 93 89 178q56 163 92.5 308t53.5 200t31 101q55 178 123 262q20 29 40.5 48t67.5 58l-63 -2q-238 -9 -293 -24 q-96 -26 -150.5 -66.5t-81 -67t-48.5 -60.5q-38 -61 -74 -183v-2q-4 -6 -9 -6.5t-6 6.5q5 84 61 217t147 191.5t229 58.5h42l214 -7l124 9q23 0 23 -7.5t-15 -17.5q-71 -47 -110 -119q-52 -95 -85 -200q-58 -188 -91 -306l-16 -55q81 0 163 41q68 31 99.5 61.5t49 53 t36.5 52.5q43 71 75 138.5t48 100t29 56.5q23 39 67.5 87.5t110 81.5t126 33t60.5 -25q0 -10 -17.5 -32.5t-21.5 -33.5q-10 -18 -18.5 -18t-14.5 8q-16 37 -60 37t-64.5 -20t-35 -47t-52.5 -117q-84 -197 -148 -280q-92 -119 -196 -158q-35 -14 -138 -43q67 -17 100 -51 t50.5 -71t25.5 -57t15.5 -45.5t13.5 -59.5t14 -79t13 -75.5t10 -52.5q6 -32 20 -71q29 -77 100 -77h2q104 0 210 195q30 54 41 90q13 44 20.5 44t7.5 -12v-12q-16 -81 -70.5 -172.5t-126 -149t-133 -57.5t-98.5 37t-53.5 79t-25.5 96t-12 76.5t-10 57.5t-14.5 73t-14.5 65 q-14 55 -28 89q-23 54 -56 81t-53 34.5t-55 11.5q-87 -282 -159 -393q-27 -43 -62 -88q-76 -96 -186.5 -155.5t-191 -59.5t-133 23.5t-91.5 65.5q-84 90 -84 216z" />
<glyph unicode="L" horiz-adv-x="1290" d="M-365 123q0 51 17.5 83t60.5 68q78 70 156 70q77 0 283 -74l38 -14q71 99 107 244l37 155l8 27q-120 10 -148 10q-72 0 -96 -8t-37.5 -15t-17.5 -8t-6 -4h-4q-4 4 -4 7l2 8l82 88q12 14 61.5 14t89.5 -2t96 -6q6 39 17 74q55 248 117 350q59 96 170 169q110 73 192 73 t127 -58.5t45 -154.5q0 -178 -149 -340q-82 -88 -141.5 -119t-86 -42t-56.5 -18q-55 -14 -144 -18l-43 -188q-13 -55 -39 -94q-50 -76 -142 -160q287 -148 437 -148q104 0 177 76q42 43 64 96l29 66q6 10 12 10q12 0 12 -25q0 -55 -64 -147t-135 -132t-139.5 -40t-102.5 7 t-61.5 16.5t-62.5 23.5q-70 28 -176 80l-63 31q-189 -164 -342 -164q-78 0 -127.5 41t-49.5 92zM-305 178q0 -37 51 -66.5t118.5 -29.5t134.5 25.5t110 66.5q-188 84 -314 84q-45 0 -72.5 -21.5t-27.5 -58.5zM471 766h25q219 0 319 106q115 124 115 332q0 62 -40 108 t-110 46q-127 0 -186 -141q-38 -95 -49.5 -139t-19 -74.5t-15.5 -64.5q-17 -73 -39 -173z" />
<glyph unicode="M" horiz-adv-x="2048" d="M-416 301q0 70 32 142.5t69 106.5q82 75 104 75q6 0 6 -7l-8 -11q0 -1 -4 -5l-25 -31q-31 -39 -50 -97t-19 -115.5t23.5 -109.5t63.5 -90q87 -83 210 -83q82 0 162 40t134 106q103 125 216 468q41 135 76.5 275.5t44 166l15.5 46.5q14 40 33 73q43 75 68 94t25 26t-12 7 q-15 0 -48 -4q-92 -11 -169 -14.5t-126 -7.5t-87 -12q-145 -33 -234 -156q-67 -96 -90 -232q-2 -18 -12.5 -18t-10.5 37t17 107q39 165 133 263q49 49 112.5 71t142 22t144.5 -7l107 -10q32 -4 62 -4q68 0 102 7t40 7q12 0 13 -14q0 -4 -4 -8q-41 -39 -41 -176v-93 q0 -54 8 -118l41 -647q14 29 24.5 49t36 73.5t50 106.5t43.5 87q138 255 264 397q121 134 286 235q117 72 201 94.5t118 22.5t34 -6v-3q-4 -16 -13 -36l-12 -25q-10 -18 -17.5 -23.5t-27.5 -5.5h-27q-16 -2 -30 -2h-23q-59 -4 -72 -8q-35 -16 -93 -99t-109.5 -185.5 t-86 -195.5t-58.5 -189q-54 -208 -54 -347q0 -229 141 -229q111 0 209 131q90 121 129 276q2 12 11 13q8 0 8 -15.5t-5.5 -42t-14.5 -57.5q-14 -49 -65 -152.5t-140 -178t-182 -74.5t-146 85t-53 236q0 252 122 514q35 80 82.5 159t65.5 109.5t36 56.5q43 62 87 113 q-93 -43 -137 -85t-112 -111q-243 -247 -444 -713q-43 -98 -71 -195q-42 -149 -45.5 -155t-13 -6t-13.5 4t-4 20q14 133 14 238q0 158 -6 229l-41 631q-8 -31 -13 -54.5t-9 -39.5q-115 -442 -193 -586q-75 -134 -215 -277q-43 -44 -89 -83t-116.5 -64.5t-139.5 -25.5 t-130 24.5t-106 67.5q-99 95 -99 227z" />
<glyph unicode="N" horiz-adv-x="1669" d="M-340 289q0 72 15 116q38 108 100 164l61 60q14 14 21.5 16t7.5 0l4 -4q0 -6 -19 -23q-76 -70 -104 -185q-12 -46 -12 -97t19.5 -98.5t52.5 -81.5q72 -74 165 -74t160.5 36t102 93t69.5 167q69 215 86 292l82 364q27 114 27 168q0 25 -11.5 63t-31 66.5t-58.5 28.5 q-72 0 -139 -91q-135 -183 -135 -413v-22l6 -62q0 -6 -8 -6q-7 0 -13 24.5t-7 34.5t-5 43l-2 62q0 131 45 227q51 116 154 193q108 80 203 80q43 0 62 -36q39 -73 53.5 -125t31 -109.5t38.5 -139.5t45.5 -165t49.5 -173q26 -95 94 -309l39 -117q16 -52 45 -109 q8 31 15.5 52.5t28 107.5t55.5 228l90 368l57 264q19 84 19 135t-37 52q-16 0 -35.5 -9.5t-23 -11.5t-9.5 -2t-6 6q0 11 53 43l37 23q70 41 102 41q48 0 48 -53q0 -10 -2.5 -25.5t-5.5 -30t-4 -27t-5 -26.5t-14 -51t-23 -78l-303 -1047q51 -55 117 -55q36 0 79 23 q50 28 78 52q42 34 42 16.5t-49 -55.5t-83 -59q-75 -48 -138.5 -48t-96.5 14t-60 51q-49 66 -104 256l-170 596q-35 121 -71 223l-7 -37q-100 -576 -209 -802q-63 -128 -175 -212q-117 -87 -222 -87q-107 0 -185 91q-77 90 -77 216z" />
<glyph unicode="O" horiz-adv-x="1251" d="M-178 504q0 321 196 602q112 159 279 266q100 63 154 70q6 0 6 -8t-33 -16.5t-113 -76.5q-115 -94 -201 -224q-169 -253 -169 -574q0 -340 211 -439q65 -30 139 -30q205 0 352 200q110 151 161 414q25 127 25 230q0 197 -60 302t-171 105l-59 -6q-8 0 -9 6q0 7 9 25 l55 77q10 14 30 14q18 0 46 -11q58 -23 92 -48q168 -124 168 -405q0 -280 -146 -559q-121 -232 -332 -356q-130 -78 -217 -78q-169 0 -286 137q-127 155 -127 383z" />
<glyph unicode="P" horiz-adv-x="1138" d="M-289 -223q0 39 103 475l194 842q31 133 31 202.5t-59 69.5q-31 0 -89 -35l-14 -6q-10 -8 -16 -8t-6 7q0 15 61 46l109 62q50 24 73 24q59 0 60 -72q0 -57 -19 -114l-323 -1360q-21 -86 -21 -125t33 -39t55 92l25 99q8 29 25.5 93t40.5 146q50 185 88 330t71 260t61 196 q49 146 94.5 218.5t91.5 120t96 83.5q105 74 201.5 74t153 -87t56.5 -245q0 -402 -264 -700q-84 -96 -126 -133q-75 -66 -167 -129q100 -31 166 -31q143 0 234 131q24 33 52 86q2 8 11 8q8 0 8 -11q0 -27 -42 -89q-57 -85 -120.5 -144t-163.5 -59h-21q-10 0 -26.5 1t-28.5 4 t-26.5 7.5t-38.5 8.5l-37 6l-51 12q-87 22 -134 22q-8 0 -14 -1l-28 -2q-18 0 -19 8q0 11 31 35l37 28q15 13 45 13l72 -11q105 0 208.5 107t183.5 245q154 268 154 549t-182 281q-113 0 -212 -109.5t-171 -314.5q-79 -224 -130.5 -419t-83.5 -320q-84 -327 -90 -364 q-14 -75 -27 -103q-27 -57 -95 -57q-80 0 -80 96z" />
<glyph unicode="Q" horiz-adv-x="1175" d="M-303 -301q0 14 27 29q54 29 81 47q70 35 111 35q58 0 141 -14.5t103 -17.5t34.5 -5t26.5 -3t39 -4q72 -8 154 -8q167 0 233 66q29 29 55.5 77t33.5 76.5t10.5 33.5t12.5 5t9 -8v-12q-18 -71 -58 -138t-85 -107q-91 -81 -234 -81h-27q-16 0 -36.5 2t-39 3t-38 3.5 t-43 5.5t-59.5 9q-51 8 -108 16q-72 10 -120 10q-92 0 -149 -14l-37 -8h-2q-18 -6 -26.5 -6t-8.5 8zM-242 430q0 285 160 561q51 88 117 164q106 127 240.5 198.5t259.5 71.5q68 0 133 -29q200 -87 200 -398q0 -225 -104 -466q-148 -341 -426 -556q-83 -63 -133 -91 q-60 -33 -72 -41q-25 -10 -34 -10t-9 8q0 10 9 15.5t22.5 12.5t60.5 34q104 60 192.5 162t157 214.5t117.5 232.5q107 262 107 462.5t-88 294.5q-37 39 -95.5 62.5t-113.5 23.5t-108.5 -16.5t-103.5 -45.5q-103 -61 -159.5 -147.5t-94.5 -172t-65 -177.5q-57 -200 -57 -355 t68.5 -236t182 -81t196.5 57.5t165 184.5q10 18 17.5 18t7.5 -12t-22 -50q-91 -152 -228 -227q-96 -53 -179.5 -53t-138.5 28.5t-96 80.5q-86 108 -86 278z" />
<glyph unicode="R" horiz-adv-x="1327" d="M-272 772q0 268 172 471q78 94 166 146.5t163.5 52.5t117.5 -44t42 -104q0 -75 -29 -174l-243 -968q-11 -38 -11 -61.5t19 -22.5q20 0 37 34q43 119 67 224l162 608q56 210 123 305q31 48 95.5 104t107.5 73.5t94 17.5q98 0 155.5 -65.5t57.5 -166.5q0 -207 -152 -401 q-180 -234 -436 -234q-31 0 -43 2t-12 11.5t10 9.5l36 -4h19q94 0 185.5 61t150.5 141t96 185.5t37 195t-42 135.5t-117 46q-141 0 -252 -178q-50 -80 -82 -211l-209 -787q-27 -100 -55.5 -138t-77.5 -38q-68 0 -68 68q0 55 14.5 109.5t32 114.5t38 133t35.5 129t22 81 l102 399q27 110 27 187.5t-33 120t-86 42.5t-112.5 -39.5t-108.5 -106.5q-103 -141 -150 -359q-20 -98 -20 -183q0 -115 6 -162q8 -62 8 -73q0 -4 -8 -4t-15 26l-20 84q-16 77 -16 207zM311 477q0 8 23 21l49 26q41 23 82 23t65 -11q47 -21 86 -122l66 -174l10 -23 q17 -55 43.5 -92t82.5 -37t100.5 54.5t54.5 142.5q3 26 12 26q12 1 12 -25q0 -57 -33.5 -127.5t-87 -113.5t-117 -43t-108.5 74q-14 23 -24.5 40t-19.5 40q-28 69 -51 136q-42 118 -60 146q-34 58 -78 58h-1q-44 0 -93 -25h-5q0 -2 -2 -2q-6 0 -6 8z" />
<glyph unicode="S" horiz-adv-x="1099" d="M-285 342q0 134 110 229q108 93 269 93q78 0 121 -16.5t43 -24.5t-2 -8.5t-26 7.5q-43 13 -104 13t-116 -20.5t-97 -57.5q-89 -78 -89 -192q0 -122 114 -208q117 -87 273 -87q92 0 185 32.5t154 85.5q122 106 122 283q0 145 -126 245q-56 44 -144.5 104t-117.5 96 q-55 68 -55 153q0 129 129 260q66 66 117 91.5t128 25.5t134.5 -53.5t57.5 -139t-54 -182.5q-23 -37 -31.5 -37t-9.5 7q-1 16 9 30q16 39 16 117t-48 127t-145 49t-161 -61.5t-64 -144.5t34 -136t120 -115l168 -121q131 -98 131 -235q0 -111 -50.5 -213t-135.5 -181 t-195.5 -125t-214.5 -46t-183 27.5t-139 76.5q-127 105 -127 252z" />
<glyph unicode="T" horiz-adv-x="1175" d="M-285 803q0 147 51.5 278t143.5 224q131 127 336 127h16q12 0 129 -7l141 -6q53 -2 90 -4t60 -2h182l33 2h4q12 0 15.5 -3t3.5 -12t-2 -14l-15 -102v-2q-6 -31 -12 -31q-10 0 -17.5 21.5t-17.5 27.5q-18 11 -119 19l-162 14q-23 2 -70.5 5t-105 6.5t-90.5 3.5h-59 q-302 0 -434 -271q-59 -117 -66 -340q0 -25 -16 -24q-10 0 -13 6q-6 18 -6 84zM57 324q0 96 56 299l151 536q11 34 17 43.5t20 18.5l102 53h5q20 12 28 12t8 -8t-11 -21.5t-17 -21.5t-10 -15q-14 -24 -21 -49l-10 -30l-154 -543q-2 -4 -4 -13.5t-10 -41t-15.5 -66.5 t-11.5 -61q-8 -54 -8 -86q0 -111 65.5 -178.5t188.5 -67.5t226.5 103.5t168.5 306.5q10 31 19 30q8 0 8 -17t-7 -46t-17 -61q-21 -65 -54 -128q-72 -133 -177.5 -205.5t-227.5 -72.5q-124 0 -217 97q-91 95 -91 233z" />
<glyph unicode="U" horiz-adv-x="1441" d="M-242 708.5q0 72.5 8.5 132.5t27.5 115q36 98 126 212t198.5 182.5t182 68.5t109.5 -41t36 -108q0 -70 -27.5 -160t-45 -143.5t-43 -130t-42 -128t-28.5 -86t-19.5 -61t-15.5 -53.5q-45 -162 -45 -268q0 -162 121 -162q133 0 246 176q132 206 219 498q76 254 76 391 q0 23 -2 25.5t-12 15.5q-44 52 -46 131q0 115 70 115q57 0 57 -82v-13l-2 -114q103 -22 136.5 -59.5t33.5 -87.5q0 -80 -28 -173l-140 -479q-16 -53 -16 -57q-39 -130 -39 -213q0 -82 48 -82h1q54 0 106 62q101 121 101 267v11q0 20 14 20q19 0 19 -67.5t-48 -160.5 t-118 -150.5t-126 -57.5q-112 0 -112 125q0 72 35 188l170 563l10 35q23 71 23 122q0 48 -21 78q-20 28 -69 44q-60 -393 -211 -711q-102 -219 -215 -333.5t-225 -114.5q-78 0 -128.5 62.5t-50.5 140t17.5 144t60.5 204.5l117 362q80 237 80 344q0 51 -26.5 80t-67 29 t-78 -17.5t-76.5 -48.5q-173 -134 -253 -404q-38 -128 -38 -218t17 -158q0 -8 -11.5 -8t-15.5 22l-14 62q-11 50 -11 122.5z" />
<glyph unicode="V" horiz-adv-x="1290" d="M-137 848.5q0 115.5 47 217.5t98 165t112 111q126 102 249 102q61 0 98 -44t37 -116q0 -57 -16.5 -115.5t-19.5 -73t-9 -36.5l-142 -504q-57 -214 -57 -297.5t45 -130.5t118 -47t139.5 35t127.5 99q197 206 272 611q25 131 25 200t-2 99.5t-4 55.5q-5 62 -21 67 q-6 2 -34.5 7t-51 33t-22.5 66t23.5 61.5t62.5 23.5q66 0 100.5 -73t34.5 -208q0 -149 -48 -339q-72 -284 -249 -546q-102 -150 -201.5 -219t-203.5 -69t-164 68.5t-60 180.5q0 85 72 355l129 475q37 144 37 199q0 118 -102 118h-2q-86 0 -167 -81.5t-149 -235.5 q-46 -106 -51.5 -156.5t-8.5 -80.5q-7 -68 -7 -98v-44q0 -5 4 -39v-10q0 -6 -7 -6t-19.5 52t-12.5 167.5z" />
<glyph unicode="W" horiz-adv-x="1820" d="M-270 772q0 274 192 473q90 92 195.5 144.5t180.5 52.5q142 0 232 -107q84 -104 84 -305q0 -377 -234 -680q-78 -102 -243 -227q86 -31 176 -31q169 0 287 133q82 94 118 191q76 204 171 692q8 45 14 72.5t9 43.5q7 36 24 46l88 49q16 8 27.5 8t11.5 -11t-10 -24.5 t-16.5 -27t-13.5 -33t-15.5 -52t-21.5 -84.5q-50 -199 -95 -437t-45 -346.5t43 -164t121 -55.5q141 0 262 168q143 197 200 530q23 138 23 222q0 136 -11 166t-18.5 37.5t-35.5 23.5q-56 31 -56 79t21.5 72.5t63.5 24.5t70 -41t36 -83.5t8 -110.5q0 -220 -38 -374.5 t-86 -275t-92 -194.5t-114 -158q-140 -168 -289 -168q-96 0 -155.5 83t-59.5 216v37l2 37q0 4 -2 4h-4l-4 -4l-20 -39q-13 -40 -72 -115t-111 -123q-122 -110 -275 -110h-3q-42 0 -150 16l-30 4q-41 4 -67 8.5t-61.5 4.5t-88.5 -19v19l75 73q25 20 33 23.5t55 4.5 q134 3 268 163q71 86 124 226.5t71.5 242.5t18.5 218q0 219 -72 306q-61 82 -162.5 82t-185.5 -45t-145.5 -130t-101.5 -222t-40 -277q0 -119 21 -215l8 -43v-4q0 -6 -5 -6t-14.5 10t-23 47t-24.5 85q-23 100 -23 204z" />
<glyph unicode="X" horiz-adv-x="1441" d="M-268 305q0 58 43 86q25 18 35 19q6 0 6 -21v-6l-2 -45v-35q0 -95 61 -159q64 -68 152 -68q133 0 245 119q69 69 99 130.5t41.5 90t20.5 60.5q11 38 38 177h-293q-8 0 -8 7.5t4 7.5l51 51q16 16 45 16h217q8 26 13.5 55t9.5 47.5t11 64.5q16 107 16 169q0 274 -172 275 q-131 0 -244 -136q-68 -80 -103 -172q-36 -127 -41 -133q-2 -16 -12 -16t-10 15.5t10 61.5t33 105.5t72 129t108 119.5q128 107 241 107q220 0 220 -297v-23q0 -13 -2 -32q48 89 91.5 134.5t74.5 74.5q145 139 260 139q57 0 91 -38.5t34 -95t-23.5 -90.5t-54.5 -34 q-8 0 -8 27v6q0 70 -32 111t-85 41q-96 0 -205 -121q-79 -88 -118 -185q-43 -114 -55.5 -182.5t-22.5 -132.5h377q10 0 10 -6t-2 -6l-51 -53q-10 -10 -25 -11h-324q-24 -82 -24 -202.5t16.5 -182t52.5 -108.5q66 -88 168 -88q129 0 252 154q35 44 56 81l2 2q6 14 12 15 q6 0 6 -11.5t-19.5 -48.5t-50.5 -76q-76 -98 -162.5 -150t-149.5 -52q-119 0 -175 65q-60 68 -93 191q-5 18 -8 37.5t-6.5 42t-5.5 55.5q-74 -128 -110.5 -167.5t-67.5 -72.5q-145 -147 -285 -147q-111 0 -178 87t-67 228z" />
<glyph unicode="Y" horiz-adv-x="1327" d="M-280 129q0 8 14 23l41 30q53 37 67 37l72 -12q45 0 106.5 29.5t124 83.5t117.5 136.5t95 176.5q83 195 83 403q0 162 -78 260q-79 99 -208 99q-139 0 -238 -140q-125 -174 -125 -417q0 -94 15 -149q38 -130 47 -130q0 -6 -7 -6q-20 0 -45.5 55.5t-38.5 102.5 q-28 96 -28 192q0 231 162 402.5t340 171.5q147 0 233 -112t86 -278.5t-41 -303t-114.5 -252t-172.5 -199t-246 -148.5q-9 -4 -9.5 -11t26.5 -20t82 -26.5t101 -13.5t89.5 9t73 21.5t58.5 30.5q51 34 122 113q137 156 195 321q10 25 31.5 108t48 187.5t39 153.5t18.5 84 l27 137q4 27 7 43t2 23.5t-3 23t-2 21.5v13t14 15h2l76 33q14 6 29 6q26 1 26 -22q0 -17 -8 -41q-10 -29 -10 -33l-248 -1043q-33 -153 -59.5 -212.5t-51 -106.5t-61 -89.5t-54.5 -59.5t-36 -33q-20 -18 -90 -62l12 -2l57 -4l45 -4h23q72 0 142.5 37t107.5 81 q59 71 81.5 121t30 71.5t12.5 43.5q10 45 15.5 96.5t7.5 57.5t11 6q22 0 22 -88q0 -176 -168 -344q-170 -166 -358 -166q-35 0 -84 6l-103 12l-112 15q-52 6 -85 6q-49 0 -71 -8t-26.5 -9t-9.5 -3.5t-15 -2.5t-10 8q0 10 13 18l19 13l9 4q2 2 3 2t6 4.5t8 8.5t19 16l29 23 q21 18 37 18q43 0 133 -12l64 -8l22 -4q17 -5 41.5 -5t56 19t77.5 73t68 101q44 98 75.5 209.5t42 148.5t16.5 66q11 52 18 119q-89 -146 -126 -193q-226 -287 -449 -287q-51 0 -197 56l-45 16q-28 8 -49 21q-54 12 -69 12t-27 -4h-6q-10 0 -10 10z" />
<glyph unicode="Z" horiz-adv-x="1187" d="M-358 7q0 7 4 11q14 8 67 62l66 65q91 91 297 389q57 84 106 162q-41 2 -62 2h-84t-42 -2l-21 -2q-36 -4 -54.5 -4t-18.5 8q0 11 47 70h280l23 35q215 340 330 455l38 38q-41 -4 -64 -4h-109t-83 4l-86 7l-102 6q-58 4 -86 4q-66 0 -92 -11q-59 -26 -94 -106l-13 -27 q-6 -16 -14 -16t-8 16t29 76l24 51q23 47 34 66q35 63 115 63h5q38 0 104 -8q183 -22 277.5 -22t157.5 4q89 6 114.5 10t34.5 4h12q14 0 14 -8q0 -14 -23.5 -31.5t-53 -47.5t-72.5 -81t-90 -117q-102 -145 -232 -356l301 2q33 0 33 -7t-8 -17t-17 -26q-22 -38 -32 -38h-4 q-4 2 -20.5 2t-45.5 2l-63 4q-30 3 -54 3h-13q-30 -1 -68 -1h-54l-102 -155q-95 -145 -135 -191.5t-56 -66t-32.5 -38t-34.5 -37t-43 -44.5q37 6 68 6h41q44 0 182 -31l90 -20q132 -31 249.5 -31t182.5 66q41 41 73.5 107.5t41.5 125.5l8 68q4 20 14 20q10 1 10 -35 q0 -92 -57 -217t-138 -180t-206 -55q-68 0 -190 35l-93 24q-133 37 -204 37q-147 0 -246 -57l-41 -25q-2 0 -4 -2q-8 0 -8 7z" />
<glyph unicode="[" d="M-166 -86l334 1518h303l-6 -37h-195l-313 -1436h188l-8 -45h-303z" />
<glyph unicode="\" horiz-adv-x="569" d="M-233 1442h79l410 -1442h-80z" />
<glyph unicode="]" d="M-266 -86l8 39h195l315 1442h-191l9 37h301l-336 -1518h-301z" />
<glyph unicode="^" horiz-adv-x="1214" d="M236 172l335 838h70l336 -838h-66l-305 774l-303 -774h-67z" />
<glyph unicode="_" horiz-adv-x="1024" d="M0 -154h1024v-102h-1024v102z" />
<glyph unicode="`" horiz-adv-x="417" d="M-170 1079q0 16 12.5 27.5t37 11.5t71.5 -45l244 -229h-45l-261 168q-59 39 -59 67z" />
<glyph unicode="a" horiz-adv-x="757" d="M-266 172q0 141 65.5 273.5t177.5 217.5t211 85q66 0 106 -35t46 -95l-102 -514v-2q-2 -4 -2 -11v-11q0 -24 20 -12q4 4 7 6t13 12t35 33.5t37 40.5q10 10 16.5 10t6.5 -12t-56.5 -68.5t-86 -78t-52.5 -21.5q-43 0 -43 47q0 33 21 119l26 131q-80 -135 -167 -215 t-149 -80t-96 49t-34 131zM-180 202q0 -52 26.5 -94t55.5 -42q58 0 123.5 56t99 109.5t53 96.5t34.5 87q32 94 32 153.5t-34 88.5t-89 29q-113 0 -184 -113q-83 -120 -109 -272q-8 -47 -8 -99z" />
<glyph unicode="b" d="M-229 207q0 89 28 182l187 701l6 24q37 146 37 182.5t-7 43.5q-11 12 -38 12h-17q-4 -2 -11 -2t-7 10t14 14h4l115 39q23 8 41 8q25 0 24 -24q0 -6 -3 -20.5t-5 -26.5l-4 -23l-207 -790q-53 -208 -53 -314q0 -72 34 -110.5t91 -38.5t105.5 33.5t84.5 92.5q80 127 80 300 q0 207 -127 207q-69 0 -137 -68q-6 -6 -14 -6t-8 11t27 34q58 48 79 61q53 37 116 37t106.5 -59.5t43.5 -158.5q0 -203 -151 -394q-63 -78 -135 -122t-119 -44t-77 17.5t-54 46.5q-49 60 -49 145z" />
<glyph unicode="c" horiz-adv-x="606" d="M-260 228q0 206 139 390q104 139 244 140q58 0 103.5 -24.5t45.5 -41.5q0 -29 -22 -76l-10 -22q-8 -14 -17 -14q-2 0 -8 8q-20 55 -60 87t-87 32q-91 0 -165 -133q-73 -129 -73 -298q0 -198 146 -198h1q137 0 216 194q4 10 6 15.5t4 9.5q0 10 9 10t9 -13 q0 -33 -51 -115.5t-122 -130.5t-141.5 -48t-118.5 64.5t-48 163.5z" />
<glyph unicode="d" horiz-adv-x="796" d="M-266 260q0 207 133 369q111 139 239 139q66 0 111 -41q35 -32 51 -90l142 604q8 33 8 55q0 43 -33 43q-9 0 -66 -20q-8 0 -8 10t19 17l73 28q63 25 96 25t33 -31q0 -14 -4 -25l-245 -989q-10 -41 -17 -64q-28 -98 -28 -152t38 -54q25 0 50.5 21.5t66.5 72.5l25 31l2 4 l14 16q14 17 19 17q8 0 8 -6q0 -20 -64 -93q-125 -143 -198 -143q-61 0 -62 107q0 29 5 58t13.5 60t19.5 75t25 92q23 84 23 150.5t-48 119.5t-125 53t-134 -96q-82 -145 -82 -353q0 -100 26.5 -146t96.5 -46t131 78l27 34q3 5 6 5q5 0 5 -9q0 -16 -44 -69 q-96 -119 -177 -119t-126 72.5t-45 189.5z" />
<glyph unicode="e" horiz-adv-x="530" d="M-262 224q0 216 127 380q55 70 120.5 111t115 41t79 -34t29.5 -75t-19.5 -80t-53.5 -77q-65 -74 -177 -142l-59 -33q-4 -2 -13.5 -2t-9.5 6t12 15h2q4 4 13 8q94 55 146 125t52 141q0 35 -19.5 55.5t-61 20.5t-83.5 -47t-74 -150.5t-32 -218.5q0 -198 132 -199q1 0 1 1 q109 0 182 88l23 26q4 4 8 4t4 -6q0 -27 -53 -80q-111 -111 -202 -111l-1 1q-92 0 -140 63.5t-48 168.5z" />
<glyph unicode="f" horiz-adv-x="454" d="M-242 25q0 8 5.5 26.5t15.5 50.5q15 48 59 220l84 331h-145l28 76h132l79 320q43 159 70.5 207.5t55.5 76t61 48t68.5 32.5t64.5 12t29 -7t-1.5 -11t-3.5 -10l-28 -70q-4 -12 -15 -12h-8l-20 2l-27 2q-12 2 -20 2h-13q-29 0 -42 -17.5t-27 -76.5l-125 -498h145l4 -16 l-4 -4q-25 -44 -29 -45.5t-11 -6t-31 -4.5h-91l-139 -567q-11 -47 -18 -66q-14 -25 -57 -25q-1 0 -2 1q-44 0 -44 29z" />
<glyph unicode="g" d="M-319 -137q0 91 115 167q18 11 25 11t7 -4t-4 -8l-17 -17q-41 -41 -41 -99q0 -61 57 -105q56 -44 123.5 -44t111.5 15.5t78 42.5q75 58 75 133q0 78 -137 86l-94 4l-70 2q-81 3 -109 16q-20 14 -20 51q0 53 87 109q15 10 21 10t7 -6q0 -6 -9 -16q-23 -29 -23 -44t24 -15 q23 0 42 -2.5t35.5 -3.5t51 -3t65.5 -4t54 -5q46 -6 80 -14.5t58.5 -38.5t24.5 -74q0 -95 -117 -193q-127 -102 -286 -103q-98 0 -156.5 41t-58.5 111zM-199 410q0 125 117 241q61 59 117.5 86t126.5 27q127 0 164 -102q20 33 39.5 56.5t48.5 22.5q35 0 35 -33 q0 -46 -65 -64q-17 -5 -52 -13q2 -12 2 -23v-16q0 -121 -113 -230q-61 -59 -133 -92.5t-136.5 -33.5t-107.5 48t-43 126zM-98 453q0 -152 131 -152h8q85 0 141 73q56 71 56 177q0 151 -140 151h-2q-86 0 -140 -69.5t-54 -179.5z" />
<glyph unicode="h" horiz-adv-x="833" d="M-307 8v8l280 1016q16 57 29.5 114.5t21.5 89.5q10 36 15 75v2q0 27 -25 26q-27 0 -67 -20h-2q-6 0 -6 8t24.5 20t54.5 27q92 45 123 45t31 -28q0 -12 -2 -19v-2l-291 -1024q69 111 150 199q43 51 129 123q113 88 184 88q72 0 72 -94q0 -26 -21 -99l-106 -334l-19 -71 q-6 -27 -6 -43q0 -33 31 -33t66.5 34t73.5 77.5t42 50.5q15 24 25 24q8 0 8 -5t-11 -23q-15 -25 -57 -80q-144 -170 -243 -170q-53 0 -54 65q0 30 31 146l74 237l6 21q17 52 27 86q18 67 18 94q0 35 -48 35t-125 -62.5t-138 -144.5q-94 -128 -117.5 -189t-32 -84.5 t-13.5 -49.5q-12 -64 -20 -136l-8 -8h-98q-6 0 -6 8z" />
<glyph unicode="i" horiz-adv-x="417" d="M-252 68q0 33 25 127l106 360q23 78 23 100t-13 23q-16 0 -49 -19l-16 -6q-8 0 -8 8.5t4 12.5l143 94q16 10 23 10q24 0 24 -49q0 -48 -26 -137l-74 -258q-17 -81 -34 -143t-17 -80q0 -31 27.5 -31t50.5 20q40 26 98 125q8 12 16 13q6 -1 6 -9q0 -24 -34.5 -71t-52.5 -67 q-31 -33 -85 -73q-39 -24 -71 -24h-2q-63 0 -64 74zM-51 1049q8 8 31 23q39 27 47 30q45 -36 45 -101q0 -29 -26 -52t-64 -29q-6 50 -33 129z" />
<glyph unicode="j" horiz-adv-x="417" d="M-365 -292q0 5 11 15q26 25 40 50q34 57 60 154q38 142 55 225l72 313q33 143 33 186.5t-17 42.5h-45q-10 0 -10 10q0 14 10 18.5t21 8.5l106 43l21 8q35 14 49 15q16 -1 16 -17q0 -4 -9 -20q-17 -30 -31.5 -82.5t-19.5 -70.5t-12.5 -50.5t-17.5 -78.5t-19 -84t-14 -64 l-28 -146q-6 -29 -12.5 -54.5t-19.5 -84.5q-44 -188 -179 -312q-35 -32 -47 -32q-13 0 -13 7zM-45 1053l106 51q35 -31 35 -88q0 -37 -18.5 -49.5t-37.5 -21.5t-23.5 -10t-12.5 -5q-4 33 -18.5 69.5t-30.5 53.5z" />
<glyph unicode="k" d="M-295 8l260 961l19 61q6 35 18 83.5t16.5 69.5t8.5 38l8 45q4 24 4 39q0 37 -25 36q-12 0 -24 -6l-31 -10q-2 0 -6 -2l-2 18q54 32 81 41t64 23t59.5 14t22.5 -18q0 -2 -4 -19l-240 -858q47 47 69 72t68 69q106 101 197 101q98 0 99 -107q0 -82 -57 -155 q-85 -111 -224 -194q-33 -19 -78 -44l107 -119q35 -41 55 -55t47 -14q47 0 127 104l27 35q4 10 12 10t8 -11t-38 -62t-77 -90q-65 -64 -116 -64q-38 0 -77 36q-9 9 -16.5 16t-15.5 16.5t-20 21.5l-70 74q-8 10 -13 14t-10 9q-20 20 -46 20t-42 -17q-17 -26 -24 -71l-19 -103 q-4 -16 -18 -16h-76q-8 0 -8 8zM-141 227q63 10 103 37t79 53q229 159 229 281q0 107 -71 107q-58 0 -160 -96q-74 -70 -96.5 -112t-34.5 -72t-21.5 -53.5t-14.5 -45.5q-9 -39 -13 -99z" />
<glyph unicode="l" horiz-adv-x="417" d="M-233 287l217 827q16 76 26 123t10 79t-30 32h-10q-4 -2 -6.5 -2t-4.5 -3l-26 -8q-8 -4 -14.5 -4t-6.5 10t19 17l151 61q16 8 29 8q31 0 31 -32v-19q-2 -4 -2 -9l-7 -26q0 -4 -2 -4l-264 -1005l-25 -113q-8 -41 -8 -69q0 -68 41 -68q29 0 71 40t87 116l27 45q10 16 18 16 t8 -9q0 -19 -69 -120q-127 -172 -220 -172q-73 0 -73 86q0 87 33 203z" />
<glyph unicode="m" horiz-adv-x="1214" d="M-268 8v2q0 2 2 4v6q2 2 2 7l59 206q18 64 30.5 108t18.5 69.5t17.5 68.5t19.5 75l13 52q6 30 6 51q0 39 -39 39q-17 0 -36.5 -5t-21.5 -3t-2 11t13 13q65 22 79.5 25.5t27.5 8t19 6.5q46 14 71.5 14t25.5 -25q0 -18 -7 -40.5t-10 -24.5l-86 -283l41 56q110 151 218 233 q92 82 158 82t67 -64q0 -11 -17 -79l-55 -189q18 22 34 45q27 38 91 104q182 185 277 185q63 0 63 -66q0 -16 -16 -88l-109 -370l-10 -39q-16 -59 -16 -91q0 -34 20 -34q38 0 104 84q62 71 62 90q6 8 11 8q11 0 11 -6t-4 -11q-5 -7 -18 -32q-25 -52 -103.5 -134.5 t-144.5 -82.5q-49 0 -49 61q0 58 26.5 147t33.5 116.5t19.5 70.5t24 81t18.5 64.5t11 44t8 34.5t4 30q0 43 -30 43q-67 0 -226 -180q-72 -78 -90 -113.5t-31.5 -68.5t-25.5 -71q-29 -91 -43 -157l-19 -82v-4q-2 -10 -14 -10h-88q-5 0 -5 9q0 17 28 73q14 45 25 75.5t26 84.5 l59 221q39 146 39 185.5t-29 39.5q-64 0 -235 -196q-94 -111 -131 -207q-41 -97 -66 -275l-16 -10h-82q-6 0 -6 4q0 2 -2 4z" />
<glyph unicode="n" horiz-adv-x="833" d="M-240 9q0 7 4 22l74 297q4 18 6 29.5t4 15.5q46 184 46 267q0 25 -11.5 25.5t-40.5 -6.5h-8v25l166 80q6 2 14 2q20 0 20.5 -14t-1.5 -19v-6l-2 -2l-25 -104l-59 -213q8 10 14 19t21.5 29.5t40 50.5t51.5 55q37 37 123 104q107 77 163 77q31 0 49.5 -23.5t18.5 -65.5 t-14 -87l-101 -362q-14 -55 -14 -87t29 -32h10l8 4q21 14 31 14t10 -11q0 -14 -20 -32q-88 -63 -134.5 -63t-46.5 76q0 40 19 110l71 252q35 132 35 180.5t-41 49.5q-66 0 -191 -130q-92 -97 -124.5 -170t-45.5 -122q-17 -66 -27 -125q-13 -84 -15 -91t-2 -14 q-2 -14 -19 -14h-73q-13 0 -13 9z" />
<glyph unicode="o" d="M-256 252q0 102 50 204.5t115.5 160t111 85t55.5 27.5t10 -4t-4 -8h-2q-17 -12 -53 -43q-84 -76 -133.5 -181.5t-49.5 -206.5t36 -159.5t92 -58.5t106.5 35.5t88.5 94.5q85 134 85 294q0 69 -16.5 113t-32 54.5t-53 11.5t-37.5 11q0 6 26 20l4 3l80 36q14 7 21 7 q27 0 51 -35q57 -69 57 -157.5t-45 -193t-117 -191.5q-142 -171 -264 -171q-77 0 -128 74q-54 76 -54 178z" />
<glyph unicode="p" horiz-adv-x="757" d="M-332 -297l193 748q28 103 28 144.5t-18 45.5q-6 4 -15 4h-40q-12 0 -13 8q0 12 41 25l35 10q27 8 44.5 14.5t34 10.5t32.5 8t26 4q16 0 16.5 -10t-1.5 -13l-56 -184q46 62 75.5 89.5t49.5 45.5q72 66 143 66t112.5 -46t41.5 -111q0 -162 -143 -345q-53 -63 -135 -129 q47 -14 102.5 -14t102.5 37q6 6 12 6t6 -11t-35 -40q-74 -66 -160 -66q-27 0 -57 6l-63 14q-41 9 -68 9h-18l-23 -4h-6q-12 0 -12 9t18 34q33 49 70 49q10 0 18 -2l21 -4q15 -5 40.5 -5t43.5 13.5t39.5 42.5t35.5 48q117 153 117 304q0 66 -25.5 102.5t-69.5 36.5 q-94 0 -192 -133q-37 -49 -52 -82q-26 -57 -73 -225l-147 -516l-14 -4h-56z" />
<glyph unicode="q" d="M-270 216q0 99 41 197.5t110.5 173.5t154.5 119t150.5 44t98 -40t32.5 -89.5t-10 -95.5t-20 -105l-176 -723l-11 -10h-90l-8 12l121 451q-45 -49 -77 -75t-81 -48.5t-90 -22.5q-68 0 -106.5 56.5t-38.5 155.5zM-166 227q0 -147 111 -147q143 0 211 192q65 176 65 288 q0 56 -29.5 92t-80.5 36q-46 0 -96 -30t-89 -86t-65.5 -153t-26.5 -192z" />
<glyph unicode="r" horiz-adv-x="493" d="M-244 81q0 61 31 175l76 285q20 76 20 111.5t-26 35.5l-43 -8q-10 0 -11 6q0 6 19 16l35 23q44 27 86 27q51 0 51 -68q0 -13 -4 -41l82 78q35 35 61.5 35t45 -17.5t18.5 -45.5t-21.5 -59t-23.5 -38q-23 -31 -27 -31q-10 0 -10 17l-2 16l-2 6q-6 47 -54 47q-68 0 -98 -112 l-92 -326q-18 -68 -18.5 -87t10 -32.5t31 -13.5t64.5 33.5t89 89.5l29 35q6 6 11 6t5 -7q0 -29 -101 -126q-113 -109 -169 -109q-29 0 -45.5 22.5t-16.5 56.5z" />
<glyph unicode="s" horiz-adv-x="569" d="M-299 151q0 71 45 115q25 25 39 25h4q2 -2 2 -6v-2l-2 -4v-3l-10 -20q-10 -27 -10 -71.5t43 -85t113.5 -40.5t119.5 40t49 102q0 88 -102 141l-64 33q-98 52 -98 142.5t82 168.5t174 78q59 0 93 -34t34 -88q0 -65 -44 -96q-7 -5 -12 -5t-5 6l8 41q0 49 -36 79.5t-92 30.5 t-91 -30.5t-35 -76.5t24.5 -77t68.5 -53t62.5 -32.5t30.5 -18.5q43 -31 58.5 -72t15.5 -68q0 -96 -89 -185t-204 -89q-78 0 -125 42t-47 113z" />
<glyph unicode="t" horiz-adv-x="454" d="M-246 76q0 57 19 114l121 463h-121l30 54l29 16h82l47 164q21 55 29 57l59 14q10 2 19 3q10 0 10 -11q0 -4 -2 -8l-64 -221h117q12 0 12 -10v-4q-2 -2 -10 -16.5t-11 -19.5q-6 -10 -11 -20h-119l-113 -434q-18 -45 -18 -98t25 -53q59 0 165 180q4 10 9 10t8 -2v-4 q0 -16 -40 -81t-79 -103q-70 -68 -131 -68t-62 78z" />
<glyph unicode="u" horiz-adv-x="833" d="M-219 111q0 69 29 178l71 307l2 2q2 10 2 18v13q0 25 -16 24q-13 0 -49 -24l-19 -8q-8 0 -8 9t3 12t13.5 8t49.5 28l49 27q10 6 21.5 12t25.5 15q25 16 31 16q20 0 20 -25q0 -10 -4 -23v-4l-106 -454q-17 -70 -17 -101q0 -80 74 -80q25 0 55.5 13.5t84.5 61.5t82 88 t43 86q28 86 49.5 200.5t21.5 124.5q0 29 -21 29q-14 0 -22 -7l-33 -16v-2h-4q-4 -4 -8 -4t-4 6q-2 2 -2 7q0 8 28 24l103 59l6 2q37 23 52 23t22.5 -8.5t7.5 -22t-8 -37.5v-2l-146 -555v-2q-2 -8 -2 -23q0 -29 23 -28q27 0 59 39l70 76l20 20q2 0 2 2l6 2q13 0 13 -12 t-13 -23l-92 -92q-10 -12 -41 -39t-44 -35q-33 -20 -56 -20q-43 0 -43 55v23l4 18l14 96q-96 -102 -165.5 -147t-133.5 -45q-100 0 -100 115z" />
<glyph unicode="v" d="M-223 147q0 24 14 80l92 322q13 47 13 74q0 43 -37 43l-56 -11q-8 0 -8 11.5t21 21.5l43 27q70 45 97.5 45t42.5 -21.5t15 -42.5v-30q0 -9 -2 -17t-3 -15t-4 -18q-6 -22 -28 -87.5t-32.5 -97.5t-17.5 -57q-13 -45 -25 -86q-23 -80 -23 -125.5t35 -75.5t99.5 -30t112.5 44 t83 137q74 198 74 323t-86 125q-61 0 -111 -76l-14 -22q-6 -8 -11 -8q-4 0 -4 9q0 27 30 70t73 70t92 27t86 -43t37 -117t-23 -176q-49 -205 -141 -285q-31 -28 -99 -69q-121 -74 -187 -74t-107 45t-41 110z" />
<glyph unicode="w" horiz-adv-x="1099" d="M-260 10l14 41q92 249 138 506q8 41 8 73t-23 32l-53 -17q-10 0 -10 11t10 17.5t20.5 12.5t24.5 16q92 66 124 66t32 -29q0 -20 -11.5 -61t-11.5 -43l-82 -313q18 31 32.5 53t32 49t37 55.5t37 52t34 44t32.5 40.5q119 139 213 140q65 0 65 -66q0 -37 -35 -156.5 t-50 -181t-22 -90.5q-17 -70 -17 -107.5t27.5 -61t77.5 -23.5t94 22t67.5 55t51.5 109q62 168 62 301t-67 133q-58 0 -105 -55l-20 -23l-10 -6q-6 0 -11 10q0 10 39 56q70 78 135 78q128 0 128 -170q0 -138 -54 -287q-38 -104 -137 -184q-119 -107 -248 -107h-1 q-128 0 -128 115q0 49 19 116l69 269q10 35 14.5 55.5t6.5 26.5t6 26l2 37q0 35 -27 35q-74 0 -194 -168q-136 -189 -170 -278q-31 -76 -39 -130.5t-14 -101.5l-15 -8h-92z" />
<glyph unicode="x" horiz-adv-x="645" d="M-340 8l10 18q0 1 2 3q6 6 15 18l270 350l-37 166q-14 66 -32.5 89.5t-46 23.5t-77.5 -23l-8 15q41 41 91.5 70.5t76.5 29.5t38.5 -12t17 -28.5t14.5 -65.5l33 -185l153 209l19 23q27 33 43 47t35.5 14t35.5 -8l23 -8q22 -13 22 -21t-4 -16l-26 -43q-10 -16 -16.5 -19.5 t-24.5 -3.5h-15q-33 0 -49 -8t-39 -37l-143 -188q54 -231 87.5 -280.5t68.5 -49.5q26 0 40.5 10.5t36.5 32.5l17 16h2q4 4 8 5q8 0 8 -12.5t-28 -47.5q-72 -90 -132.5 -90t-89.5 61q-40 82 -53.5 138.5t-19.5 79t-15 57.5q-14 -18 -23 -31.5t-25 -36.5q-69 -101 -89 -145.5 t-29.5 -65t-14.5 -33.5q-10 -26 -19 -26h-103q-8 0 -8 8z" />
<glyph unicode="y" horiz-adv-x="796" d="M-256 -320.5q0 7.5 2 10.5t12 17q15 21 27 39q16 16 72 16h39q87 0 125.5 34t54.5 63.5t24.5 45t14.5 33t13 42t19 65.5l33 121l-139 -96q-97 -68 -146.5 -68t-83.5 42t-34 84q0 56 28 161l80 270q20 63 20.5 99t-30.5 36q-18 0 -38.5 -6t-23.5 -6h-7.5t-4.5 12t19 21 l30 14q81 35 129 35t48 -51q0 -21 -9 -39l-118 -408l-2 -14q-19 -66 -19 -109q0 -80 68 -80q40 0 87.5 33t65 44.5t31.5 22.5t27 21l32 25l41 147q8 27 13.5 43.5t8.5 29.5q11 47 26 111q24 97 24 122q0 35 -33 34q-14 0 -28 -6l-19 -8l-12 -4l-21 -6q-8 0 -8 10 q0 38 147 74q38 10 54 10q35 0 35 -43q0 -29 -10 -64l-170 -608q-43 -150 -118 -217q-34 -31 -97 -67l-21 -13q12 -2 20 -2h13q121 0 187.5 38t111.5 128q8 18 16 19q12 0 12 -14.5t-15 -49.5t-38 -63q-102 -144 -291 -144h-32l-109 6q-41 6 -51 6l-16 -2l-29 -2l-19 -2h-10 q-8 0 -8 7.5z" />
<glyph unicode="z" horiz-adv-x="686" d="M-319 41q0 8 16 27.5t16 21.5l234 281h-133l-4 8l59 57h131l180 215l-198 19l-39 4l-29 2q-10 2 -35 2q-53 0 -94 -66q-10 -10 -13 -10t-3 8q0 3 22 47l57 105h19q47 0 115 -11q136 -22 176 -22q52 0 90 7q49 9 53 9q12 0 12 -7t-3 -11t-66.5 -73.5t-198.5 -217.5h162 l2 -14l-51 -51h-164l-199 -244q61 -3 78.5 -4.5t29 -2.5t24 -3t29.5 -6.5t64 -14.5q86 -18 132 -18t86.5 34.5t58.5 94.5q4 10 12 10t8 -7t-14 -42q-72 -170 -203 -170q-51 0 -115.5 18.5t-83 20.5t-35.5 5q-28 5 -72 5t-69.5 -12t-29.5 -12t-9 5t-5 13z" />
<glyph unicode="{" horiz-adv-x="681" d="M82 668v6q117 20 168 69q39 39 47 82q6 20 6 49q4 20 4 33v233l2 38q16 168 146 225q56 25 145 29v-33q-120 -8 -168 -56q-60 -60 -68 -137q-2 -14 -4 -30l-2 -89v-118q0 -154 -30 -199q-45 -66 -122 -87q-18 -5 -52 -11q62 -17 101.5 -34.5t60.5 -48.5q29 -45 35 -93 q7 -65 7 -123v-162q0 -255 242 -264v-33q-143 8 -215 76q-55 51 -68 125q-10 63 -10 125v194q0 12 -4 46q-9 76 -43 108q-60 56 -178 80z" />
<glyph unicode="|" horiz-adv-x="454" d="M197 -438v2048h61v-2048h-61z" />
<glyph unicode="}" horiz-adv-x="681" d="M82 -53q124 8 184 69q37 43 45 88q13 74 13 154v115q0 151 32 199q40 61 118 84q18 6 54 16q-175 30 -197 167q-7 44 -7 130v118q0 135 -31 203q-55 101 -211 109v33q136 -8 199 -62q73 -64 87 -160q3 -16 5 -32l2 -38v-188q0 -106 16.5 -145t40.5 -64q51 -49 168 -69v-6 q-185 -35 -215 -150q-6 -30 -8 -60.5t-2 -68.5v-113l2 -36q2 -39 -11 -119t-60.5 -124t-98.5 -61.5t-125 -21.5v33z" />
<glyph unicode="~" horiz-adv-x="1214" d="M78 373q17 67 41.5 113t78.5 80t102 34q78 0 214 -47l211 -70q112 -39 171 -39t109 46.5t72 123.5h49q-12 -52 -36.5 -102.5t-80 -87.5t-107.5 -37t-81.5 8t-53.5 15.5t-51.5 15.5t-55 17.5t-52.5 17.5l-116 39q-131 43 -186.5 43t-107 -46t-69.5 -124h-51z" />
<glyph unicode="&#xa1;" d="M-225 -272q0 12 6 28v2l287 994q4 13 49 39l28 16q2 2 7 2q4 0 4 -6q0 -18 -13 -60l-194 -761q-8 -44 -13.5 -67.5t-5.5 -43t11.5 -28.5t40.5 -13h2q10 -2 10 -10t-10 -13l-158 -92q-16 -8 -33.5 -8t-17.5 21zM72 1032q0 23 12 38t54 46t58.5 31t16.5 -5t-8 -22.5 t-8 -36.5q0 -47 41 -71q6 -4 6 -10t-21 -21l-84 -53q-8 -8 -14 -8t-21 18q-32 41 -32 94z" />
<glyph unicode="&#xa2;" horiz-adv-x="681" d="M-238 343q0 73 18.5 143.5t50.5 137.5q67 138 171 218q49 34 66 40q35 11 71 11l39 129v2q6 14 17 14h22q8 0 8 -6t-4 -26l-37 -117q16 -4 25.5 -6t26.5 -13q61 -32 61 -65q0 -16 -6 -29l-25 -57q-8 -14 -14 -14t-15 26.5t-31 53t-44 32.5l-207 -618q18 -8 59 -9 q82 -1 144 93q49 62 60 101.5t22 39.5h2q8 -4 8 -11t-6 -20q-27 -102 -116 -193t-181 -91q-12 0 -21 2l-41 -115q-4 -16 -12 -16h-33q-4 0 -4 5t4 21l41 115q-53 25 -86 87t-33 135zM-141 383q0 -115 59 -162l201 610q-10 2 -23 3q-95 0 -166 -136q-71 -138 -71 -315z" />
<glyph unicode="&#xa3;" horiz-adv-x="948" d="M-229 16q0 13 27 40q54 57 116 184q63 143 63 303v35h-194l49 86h141l7 178q6 152 23 197.5t35 80.5q35 71 96 129q115 109 261 109q147 0 231 -96q29 -33 29 -50.5t-4 -37.5l-2 -3l-20 -100l-2 -4l-2 -14q-6 -6 -12.5 -6t-6.5 12q-2 2 -2 7t-1 12t-3 22 q-14 102 -81.5 160.5t-178.5 58.5t-175.5 -92t-64.5 -262v-301h201q8 0 8 -5v-2l-45 -67q-12 -12 -20 -12h-156q-11 -104 -59 -211q-78 -177 -158 -273q-4 -4 -4 -6t2 -2h6l29 8q4 0 42 11q69 20 113 20q76 0 127 -12l39 -9q57 -12 115.5 -12t118.5 35q20 10 30.5 20.5 t32.5 42.5q6 8 15 9q12 0 12 -15q0 -30 -45 -86q-82 -106 -213 -106q-40 0 -100 19q-86 27 -118 34q-62 12 -98 12q-81 0 -115 -15q-70 -31 -79.5 -32.5t-9.5 6.5z" />
<glyph unicode="&#xa4;" horiz-adv-x="948" d="M-305 522l18 53h128q42 0 57 3q12 45 26 86v2l-188 4l18 53h191q97 252 276 448q105 120 229 169q44 18 82 18t70.5 -11.5t59.5 -27.5q59 -36 59 -78q0 -18 -15 -63q-27 -76 -34 -105l-15 -4q-16 0 -13 20.5t3 30.5q0 199 -143 199q-131 0 -260 -194q-102 -154 -178 -402 h426l-19 -53l-426 -2q-17 -67 -22 -93h354l-19 -53h-346q-16 -88 -16 -144t11 -120.5t41 -117.5q69 -120 204 -120q173 0 293 170q24 24 24 -8q0 -22 -47.5 -79.5t-135 -100.5t-176.5 -43t-152.5 33t-106.5 87q-86 108 -86 273q0 84 18 170h-190z" />
<glyph unicode="&#xa5;" horiz-adv-x="948" d="M-168 145l14 54h249.5t93 1t1 1t-1.5 6q11 33 11 45h-330l14 53h328q4 10 8 37t9 57.5t8.5 58t5.5 40.5q-92 -140 -240 -142q-66 0 -106.5 41t-40.5 96.5t12 98.5l43 151q65 224 65 353q0 38 -20 80l117 53q24 -53 24 -76.5t-6 -60.5t-14 -73t-15.5 -64.5t-11.5 -49 t-14 -62.5t-25 -107q-28 -129 -28 -185.5t24.5 -98.5t85.5 -42q49 0 85 37t52.5 68.5t52.5 152.5q115 395 154 680l123 12q-113 -475 -151 -640q-47 -199 -84 -351l-15 -64h137l-22 -53h-95.5t-34.5 -2t1 -4l-12 -43l127 -4l-23 -54h-125q-43 -135 -111 -182 q-32 -22 -94 -49q57 79 79 135.5t34 95.5h-338z" />
<glyph unicode="&#xa6;" horiz-adv-x="454" d="M197 -182v512h61v-512h-61zM197 842v512h61v-512h-61z" />
<glyph unicode="&#xa7;" horiz-adv-x="1024" d="M-238 -49l54 135q0 4 5 4t7 -10q27 -117 99.5 -187.5t167.5 -70.5t153.5 58.5t58.5 154.5q0 141 -165 269q-23 18 -59 44.5t-59.5 45t-41.5 32.5q-83 67 -106 128.5t-23 110t20.5 95.5t56.5 86q74 82 191 106q-41 43 -66.5 105.5t-25.5 122.5q0 118 84 198t206 80 q40 0 90 -12t77 -24q126 -60 126 -91q0 -4 -4 -16l-2 -2l-49 -99v-2q-2 -2 -2 -4q-2 -2 -6 -2t-6 8q-4 18 -27 72t-83 99t-133 45t-125 -57.5t-52 -147.5q0 -138 165 -263q165 -124 221.5 -190t55.5 -168q0 -121 -86 -192q-51 -46 -95 -64t-83 -35q100 -98 100 -225 q0 -125 -88 -213t-215 -88q-53 0 -118.5 20.5t-108.5 51.5l-70 49q-39 29 -39 39v4zM-70 698q0 -99 107 -183q82 -65 148.5 -109.5t69.5 -49t11 -10.5q69 24 95 40.5t45 29.5q79 55 79 134t-49 138q-39 46 -71.5 70t-65.5 49t-68.5 51.5t-48 37.5t-16.5 14t-12 12 q-102 -25 -163 -87.5t-61 -136.5z" />
<glyph unicode="&#xa8;" horiz-adv-x="417" d="M-213 989q12 8 25 19q23 18 53 34q20 -16 33.5 -44.5t13.5 -56.5t-25.5 -51.5t-66.5 -29.5q-7 56 -33 129zM55 989q7 6 78 53q20 -16 33.5 -44.5t13.5 -56.5t-25.5 -51.5t-66.5 -29.5q-8 60 -33 129z" />
<glyph unicode="&#xa9;" horiz-adv-x="1550" d="M45 712q0 151 57.5 282.5t155.5 231t228 158t281 58.5t286 -56.5t235.5 -154.5t158.5 -230t58 -284t-57 -286t-155.5 -233.5t-231.5 -156.5t-285 -57t-285 57t-232 155.5t-156.5 231.5t-57.5 284zM94 716q0 -142 53.5 -267t145.5 -218.5t217 -146.5t266 -53t265 53 t216.5 146.5t146.5 217.5t54 264t-53 264t-145.5 217t-214 147.5t-263 54.5t-267.5 -53.5t-219 -144.5t-147.5 -215t-54.5 -266zM399 700.5q0 170.5 107.5 284t267.5 113.5q68 0 114 -15.5t54 -17.5t16 -6t23 -4q31 0 45 43h23l10 -256h-25q-57 217 -258 217 q-132 0 -213 -99q-80 -97 -80 -257.5t83 -254.5t225 -94q119 0 216 82q17 15 46 43l20 -20q-121 -145 -291 -145.5t-276.5 108t-106.5 279z" />
<glyph unicode="&#xaa;" horiz-adv-x="348" d="M-150 1075q0 59 30 117.5t80 95.5t105 37t62 -57l-47 -224v-10q0 -6 2 -6l53 47q6 0 6 -5t-24 -30l-25 -24q-23 -23 -42 -23t-19 23q0 12 8 47v4l10 49q-35 -55 -73.5 -88t-66.5 -33q-59 0 -59 80zM-106 1092q0 -27 11 -44.5t23 -17.5q31 0 54 23q41 35 69.5 91t28.5 103 t-53 47q-52 0 -93 -62q-40 -61 -40 -140z" />
<glyph unicode="&#xab;" horiz-adv-x="872" d="M-266 390q0 11 16 20l359 223q18 12 28 12t10 -10t-22 -27l-2 -4l-191 -155q-48 -42 -52.5 -49t-4.5 -20q0 -22 41 -83l92 -143q8 -10 8 -18.5t-6 -8.5t-24 18l-207 189q-45 45 -45 56zM72 389q0 7 10 19q8 4 12 8l350 217q18 12 29 12q10 0 10 -8q0 -9 -24 -33 l-191 -155l-49 -46q-8 -10 -8 -23q0 -17 41 -83l92 -143q8 -10 8 -18.5t-6 -8.5t-24 18l-207 189l-4 6q-39 33 -39 49z" />
<glyph unicode="&#xac;" horiz-adv-x="1214" d="M-219 653v58h997v-435h-59v377h-938z" />
<glyph unicode="&#xad;" horiz-adv-x="681" d="M-154 309q0 13 35 61t49 61q26 25 86 30q137 13 149.5 19.5t22.5 23.5q4 8 7.5 12t5.5 7t2 4q0 6 12 8q6 -1 6 -8t-8 -21q-9 -15 -17.5 -35.5t-14 -28.5t-9.5 -14q-29 -39 -78 -41l-55 -4l-49 -6q-47 -6 -68 -15q-26 -12 -44.5 -35.5t-24.5 -23.5t-7 6z" />
<glyph unicode="&#xae;" horiz-adv-x="772" d="M23 1077q0 149 106 257t252 108q152 0 261 -107q108 -106 108 -256t-107 -259q-105 -107 -256 -107q-152 0 -258 106t-106 258zM61 1079q0 -136 96 -232q95 -95 230 -95q133 0 228 95q96 96 96 230q0 131 -95 230q-92 96 -225 96q-135 0 -233 -94q-97 -93 -97 -230z M207 891v20q33 0 42 10.5t9 45.5v247q0 29 -9 38.5t-42 11.5v20h168q152 0 151 -104q0 -41 -27.5 -69t-76.5 -36l115 -139q18 -25 53 -25v-20h-74l-145 178l-54 -2q-8 0 -16 2v-108q0 -31 9 -39.5t44 -10.5v-20h-147zM301 1096h43q74 0 104.5 19.5t30.5 69.5t-49 60 q-33 8 -75.5 8t-48 -2t-5.5 -10v-145z" />
<glyph unicode="&#xaf;" horiz-adv-x="417" d="M-238 909q9 47 21 55.5t29 8.5h8q18 -4 34 -4h33l166 2l158 -2h59l19 -2h6v-2q0 -25 -25 -56q-33 -4 -57.5 -5t-46 -2t-44.5 -1h-87l-162 2l-78 2q-7 0 -33 4z" />
<glyph unicode="&#xb0;" horiz-adv-x="819" d="M125 684q0 116 83 201q82 84 198 84q122 0 204 -82q84 -84 84 -201q0 -118 -83 -203q-82 -84 -201 -84t-202 83t-83 202zM182 686q0 -97 66 -162q69 -67 162 -67q94 0 162 67q65 66 65 160t-65 160q-68 67 -158 67q-99 0 -164 -65q-68 -68 -68 -160z" />
<glyph unicode="&#xb1;" horiz-adv-x="1214" d="M-219 -4v57h997v-57h-997zM-219 543v57h467v393h61v-393h469v-57h-469v-393h-61v393h-467z" />
<glyph unicode="&#xb2;" horiz-adv-x="452" d="M-315 415q0 4 14 23l219 232q63 66 88 105.5t25 75.5t-29 61.5t-81 25.5t-93 -41q-18 -18 -22.5 -18t-4.5 5t7.5 16t11.5 18q27 52 53.5 66.5t83 14.5t100 -36.5t43.5 -90t-22 -82.5q-34 -46 -82 -94l-219 -215l43 -4l59 -2l94 -6q23 -2 32 -2h15q41 0 60.5 9t27 9 t7.5 -5t-4 -12t-13.5 -22.5t-21.5 -35.5q-6 -6 -31 -7h-16q-35 0 -70 5l-106 6l-56 2h-21q-9 0 -20 -2l-43 -6l-8 -2h-6q-14 0 -14 9z" />
<glyph unicode="&#xb3;" horiz-adv-x="477" d="M-262 506q0 43 22 60q39 31 39 9v-6q-2 -4 -2 -10v-10q0 -47 30 -75t83 -28t94 42t41 99.5t-34 88.5t-92 31t-99 -29l-10 -4q-8 0 -8.5 7t3.5 11q136 136 234 221h-135.5t-59.5 -2l-28 -6l-19 -12q-6 0 -6 4t2 8l47 72l35 -4h156l59 2h16q2 2 7.5 2t5.5 -6q0 -8 -13 -19 l-194 -190q32 4 43 4q68 0 109.5 -36t41.5 -93q0 -88 -75 -164q-72 -72 -160 -72q-55 0 -94 31t-39 74z" />
<glyph unicode="&#xb4;" horiz-adv-x="417" d="M-106 844l217 198q49 45 69.5 59.5t36.5 14.5t27.5 -13.5t11.5 -29.5t-9 -26.5t-25.5 -20.5t-19.5 -12t-7 -4l-250 -166h-51z" />
<glyph unicode="&#xb6;" horiz-adv-x="1251" d="M68 899q0 119 74 229q92 134 286 184q100 25 313 25h430v-43h-86q-8 0 -22 -12q-50 -40 -67 -106q-11 -47 -19 -164l-2 -68v-74l-2 -47v-688q0 -103 -7 -156q-20 -153 -43.5 -206.5t-46.5 -86.5q-31 -45 -66 -79q-66 -64 -165 -105q-74 -27 -166 -26.5t-142 27t-50 65.5 t20.5 59.5t50.5 20.5q31 0 51.5 -20.5t20.5 -51.5t-20 -53l24 -2q41 0 82 29.5t64 69.5q46 83 57 207l4 46q4 46 4 178v379q-18 -2 -33 -2h-24q-225 0 -357 107q-78 59 -120.5 152t-42.5 212zM506 -487q129 7 236 94q95 78 128 188q35 116 35 263v735l2 59v80q0 45 8 139 t27 141.5t59 81.5h-213q-40 -25 -53 -61q-36 -91 -40 -213q-1 -27 -3 -76l-2 -62v-819q0 -297 -33 -378t-63 -110t-44.5 -39.5t-43.5 -22.5z" />
<glyph unicode="&#xb7;" horiz-adv-x="417" d="M-131 532q0 29 20.5 48.5t49.5 19.5t48 -18t19 -46t-20.5 -48.5t-48.5 -20.5q-29 0 -48.5 18.5t-19.5 46.5z" />
<glyph unicode="&#xb8;" horiz-adv-x="417" d="M-391 -346l20 41q57 -27 119.5 -27t101.5 30t39 77q0 86 -155 98l55 133h41l-39 -96h10q116 0 159 -62q20 -30 20 -67q0 -72 -59.5 -116t-151.5 -44q-96 0 -160 33z" />
<glyph unicode="&#xb9;" horiz-adv-x="311" d="M-217 418v8l2 4v2l90 389l4 15l8 63q0 33 -22 33q-11 0 -38 -17.5t-32.5 -17.5t-5.5 6t12 17l17 10l22 16q45 33 60.5 41t31.5 8q31 0 31 -47q0 -35 -8 -59l-102 -473q-4 -12 -13 -13h-49q-8 0 -8 15z" />
<glyph unicode="&#xba;" horiz-adv-x="329" d="M-152 1102q0 45 24 91t69.5 82t55 36t9.5 -4t-12 -9t-30.5 -27t-33.5 -47q-32 -58 -32 -103q0 -97 57 -97q47 0 85 56q38 58 38 130t-45 72q-18 0 -19 6q0 4 15 10l37 17q8 4 10 4q12 0 30.5 -25.5t18.5 -62.5q0 -79 -67.5 -159.5t-125.5 -80.5q-35 0 -59.5 33t-24.5 78z " />
<glyph unicode="&#xbb;" horiz-adv-x="872" d="M-256 137q0 10 20 29l5 2l190 158l49 43q8 10 8 23q0 19 -41 85l-92 141q-8 10 -8 19q0 8 7 8t24 -16l207 -191q43 -40 43 -53.5t-11 -19.5l-362 -226q-18 -12 -29 -12q-10 0 -10 10zM80 138q0 11 22 28l193 160q45 33 51 43t6 23q0 24 -41 85l-92 141q-8 12 -8 19.5 t5 7.5q10 0 26 -16l207 -191q45 -43 45 -55t-13 -18l-362 -226q-18 -12 -29 -12q-10 0 -10 11z" />
<glyph unicode="&#xbc;" horiz-adv-x="1105" d="M-338 0l936 995h86l-934 -995h-88zM-217 418v8l2 4v2l90 389l4 15l8 63q0 33 -22 33q-11 0 -38 -17.5t-32.5 -17.5t-5.5 6t12 17l17 10l22 16q45 33 60.5 41t31.5 8q31 0 31 -47q0 -35 -8 -59l-102 -473q-4 -12 -13 -13h-49q-8 0 -8 15zM303 223.5q0 28.5 40 93t79 112.5 t77 84q83 79 126 79t43 -47q0 -29 -6.5 -45t-12.5 -42t-13 -56.5t-15.5 -63.5t-18.5 -80l-6 -25h88q6 0 6 -4q0 -3 -18 -41q-4 -8 -17 -8h-69q-16 -68 -26.5 -116t-13.5 -56t-11 -8h-48q-10 0 -10 8t45 170h-157q-35 0 -48.5 8.5t-13.5 37zM362 262q0 -18 9.5 -24.5 t40.5 -6.5h123l36 162q19 80 19 107.5t-15 27.5q-45 0 -128.5 -101t-84.5 -165z" />
<glyph unicode="&#xbd;" horiz-adv-x="1105" d="M-332 0l936 995h86l-934 -995h-88zM-217 418v8l2 4v2l90 389l4 15l8 63q0 33 -22 33q-11 0 -38 -17.5t-32.5 -17.5t-5.5 6t12 17l17 10l22 16q45 33 60.5 41t31.5 8q31 0 31 -47q0 -35 -8 -59l-102 -473q-4 -12 -13 -13h-49q-8 0 -8 15zM276 12q0 10 15 21l219 233 q63 66 88 105t25 75.5t-29 61t-67 24.5q-69 0 -107 -38l-14 -15q-4 -4 -8.5 -4t-4.5 4t7 16.5t10 19.5q25 48 52 63.5t85 15.5t100.5 -37t42.5 -90q0 -63 -40 -109q-20 -23 -33 -36l-248 -246l43 -2l118 -8l35 -3q23 -2 32 -2h23q13 0 76 21q11 0 11 -10 q-12 -22 -19.5 -33.5t-19.5 -32.5l-4 -2q-2 -4 -27 -4h-50t-38 2l-105 8l-55 2l-41 -2q-4 -2 -11 -2l-32 -4l-8 -2h-8q-12 0 -13 10z" />
<glyph unicode="&#xbe;" horiz-adv-x="1271" d="M-262 506q0 43 22 60q39 31 39 9v-6q-2 -4 -2 -10v-10q0 -47 30 -75t83 -28t94 42t41 99.5t-34 88.5t-92 31t-99 -29l-10 -4q-8 0 -8.5 7t3.5 11q136 136 234 221h-135.5t-59.5 -2l-28 -6l-19 -12q-6 0 -6 4t2 8l47 72l35 -4h156l59 2h16q2 2 7.5 2t5.5 -6q0 -8 -13 -19 l-194 -190q32 4 43 4q68 0 109.5 -36t41.5 -93q0 -88 -75 -164q-72 -72 -160 -72q-55 0 -94 31t-39 74zM-186 0l936 995h84l-934 -995h-86zM467 215q0 37 40 101.5t79 112.5t76 84q83 79 126 79t43 -47v-13l-6 -38q-4 -10 -10 -36t-14 -56.5t-17.5 -63.5t-17.5 -80l-4 -25 h86q8 0 8 -6l-18 -39q-4 -8 -19 -8h-69q-33 -160 -39 -172q-2 -8 -13 -8h-47q-8 0 -8 11.5t43 166.5h-156q-63 0 -63 37zM526 262q0 -18 10.5 -24.5t38.5 -6.5h123l37 162q19 80 19 107.5t-15 27.5q-45 0 -129 -101t-84 -165z" />
<glyph unicode="&#xbf;" horiz-adv-x="948" d="M-190 -161q0 111 194 257l55 41q195 145 195 299q0 86 -49 139.5t-122 53.5t-128 -42t-72 -104q0 -12 -11 -12t-11 13t12 44q38 97 135 151q66 36 122 36t97 -17.5t72 -48.5q66 -66 66 -157q0 -105 -78 -203q-62 -84 -209 -176q-84 -57 -119 -106.5t-35 -104.5t24.5 -87 t57.5 -32q63 0 113 43l22 18q6 6 11 6q8 0 8 -9t-43 -51q-83 -81 -152 -81t-112 38t-43 92zM160 1032q0 23 12 38t54 46t58.5 31t16.5 -5t-8 -22.5t-8 -36.5q0 -47 41 -71q8 -6 8 -10t-23 -21l-84 -53v-2q-10 -6 -15 -6t-19 18q-33 42 -33 94z" />
<glyph unicode="&#xc0;" horiz-adv-x="1441" d="M-506 275.5q0 123.5 86 238.5q49 68 118 112t122 44q12 0 12 -9t-29 -18q-53 -12 -110 -76q-100 -113 -100.5 -252t57 -209.5t160.5 -70.5q121 0 200 104q59 80 76.5 135.5t32.5 106.5l96 336h-219q-12 0 -12 6q0 14 22 36.5t37 22.5h195l20 70q65 218 117.5 306.5 t92.5 129.5t94 75q110 69 325 69h194q19 -1 19 -13q0 -20 -15 -20h-77q-18 -14 -25 -17q-123 -98 -214 -396q-34 -110 -58 -208h280q29 0 13 -22q-22 -29 -31.5 -32t-26.5 -3h-252l-30 -129q-48 -192 -48 -303q0 -197 164 -197q111 0 176.5 86t75.5 246q2 14 18.5 14 t16.5 -14q0 -173 -99 -291q-100 -119 -243 -119q-100 0 -156.5 69t-56.5 191q0 103 19.5 187t33.5 137l33 123h-287l-104 -326q-84 -270 -281 -359q-80 -36 -150.5 -36t-120.5 20.5t-86 56.5q-75 75 -75 198.5zM332 782h282q83 302 170 449q46 80 114 129q20 14 58 39h-69 q-166 0 -257 -63.5t-149 -172.5q-69 -130 -96 -214.5t-53 -166.5zM627 1726q0 16 12 27.5t37 11.5t72 -45l243 -229h-45l-260 168q-59 39 -59 67z" />
<glyph unicode="&#xc1;" horiz-adv-x="1441" d="M-506 275.5q0 123.5 86 238.5q49 68 118 112t122 44q12 0 12 -9t-29 -18q-53 -12 -110 -76q-100 -113 -100.5 -252t57 -209.5t160.5 -70.5q121 0 200 104q59 80 76.5 135.5t32.5 106.5l96 336h-219q-12 0 -12 6q0 14 22 36.5t37 22.5h195l20 70q65 218 117.5 306.5 t92.5 129.5t94 75q110 69 325 69h194q19 -1 19 -13q0 -20 -15 -20h-77q-18 -14 -25 -17q-123 -98 -214 -396q-34 -110 -58 -208h280q29 0 13 -22q-22 -29 -31.5 -32t-26.5 -3h-252l-30 -129q-48 -192 -48 -303q0 -197 164 -197q111 0 176.5 86t75.5 246q2 14 18.5 14 t16.5 -14q0 -173 -99 -291q-100 -119 -243 -119q-100 0 -156.5 69t-56.5 191q0 103 19.5 187t33.5 137l33 123h-287l-104 -326q-84 -270 -281 -359q-80 -36 -150.5 -36t-120.5 20.5t-86 56.5q-75 75 -75 198.5zM332 782h282q83 302 170 449q46 80 114 129q20 14 58 39h-69 q-166 0 -257 -63.5t-149 -172.5q-69 -130 -96 -214.5t-53 -166.5zM758 1491l219 199q76 73 106 73q16 0 26.5 -13.5t10.5 -29.5t-9 -26.5t-25.5 -20.5t-19.5 -12t-7 -4l-248 -166h-53z" />
<glyph unicode="&#xc2;" horiz-adv-x="1441" d="M-506 275.5q0 123.5 86 238.5q49 68 118 112t122 44q12 0 12 -9t-29 -18q-53 -12 -110 -76q-100 -113 -100.5 -252t57 -209.5t160.5 -70.5q121 0 200 104q59 80 76.5 135.5t32.5 106.5l96 336h-219q-12 0 -12 6q0 14 22 36.5t37 22.5h195l20 70q65 218 117.5 306.5 t92.5 129.5t94 75q110 69 325 69h194q19 -1 19 -13q0 -20 -15 -20h-77q-18 -14 -25 -17q-123 -98 -214 -396q-34 -110 -58 -208h280q29 0 13 -22q-22 -29 -31.5 -32t-26.5 -3h-252l-30 -129q-48 -192 -48 -303q0 -197 164 -197q111 0 176.5 86t75.5 246q2 14 18.5 14 t16.5 -14q0 -173 -99 -291q-100 -119 -243 -119q-100 0 -156.5 69t-56.5 191q0 103 19.5 187t33.5 137l33 123h-287l-104 -326q-84 -270 -281 -359q-80 -36 -150.5 -36t-120.5 20.5t-86 56.5q-75 75 -75 198.5zM332 782h282q83 302 170 449q46 80 114 129q20 14 58 39h-69 q-166 0 -257 -63.5t-149 -172.5q-69 -130 -96 -214.5t-53 -166.5zM557 1491l291 266h72l129 -266l-43 4l-138 174l-266 -178h-45z" />
<glyph unicode="&#xc3;" horiz-adv-x="1441" d="M-506 275.5q0 123.5 86 238.5q49 68 118 112t122 44q12 0 12 -9t-29 -18q-53 -12 -110 -76q-100 -113 -100.5 -252t57 -209.5t160.5 -70.5q121 0 200 104q59 80 76.5 135.5t32.5 106.5l96 336h-219q-12 0 -12 6q0 14 22 36.5t37 22.5h195l20 70q65 218 117.5 306.5 t92.5 129.5t94 75q110 69 325 69h194q19 -1 19 -13q0 -20 -15 -20h-77q-18 -14 -25 -17q-123 -98 -214 -396q-34 -110 -58 -208h280q29 0 13 -22q-22 -29 -31.5 -32t-26.5 -3h-252l-30 -129q-48 -192 -48 -303q0 -197 164 -197q111 0 176.5 86t75.5 246q2 14 18.5 14 t16.5 -14q0 -173 -99 -291q-100 -119 -243 -119q-100 0 -156.5 69t-56.5 191q0 103 19.5 187t33.5 137l33 123h-287l-104 -326q-84 -270 -281 -359q-80 -36 -150.5 -36t-120.5 20.5t-86 56.5q-75 75 -75 198.5zM332 782h282q83 302 170 449q46 80 114 129q20 14 58 39h-69 q-166 0 -257 -63.5t-149 -172.5q-69 -130 -96 -214.5t-53 -166.5zM592 1530q37 154 151 153q20 0 58 -8l30 -6q75 -16 109 -16q88 0 109 69h26q-4 -68 -50 -112.5t-112 -44.5q-25 0 -110 16l-33 6q-36 8 -66 8q-62 0 -81 -65h-31z" />
<glyph unicode="&#xc4;" horiz-adv-x="1441" d="M-506 275.5q0 123.5 86 238.5q49 68 118 112t122 44q12 0 12 -9t-29 -18q-53 -12 -110 -76q-100 -113 -100.5 -252t57 -209.5t160.5 -70.5q121 0 200 104q59 80 76.5 135.5t32.5 106.5l96 336h-219q-12 0 -12 6q0 14 22 36.5t37 22.5h195l20 70q65 218 117.5 306.5 t92.5 129.5t94 75q110 69 325 69h194q19 -1 19 -13q0 -20 -15 -20h-77q-18 -14 -25 -17q-123 -98 -214 -396q-34 -110 -58 -208h280q29 0 13 -22q-22 -29 -31.5 -32t-26.5 -3h-252l-30 -129q-48 -192 -48 -303q0 -197 164 -197q111 0 176.5 86t75.5 246q2 14 18.5 14 t16.5 -14q0 -173 -99 -291q-100 -119 -243 -119q-100 0 -156.5 69t-56.5 191q0 103 19.5 187t33.5 137l33 123h-287l-104 -326q-84 -270 -281 -359q-80 -36 -150.5 -36t-120.5 20.5t-86 56.5q-75 75 -75 198.5zM332 782h282q83 302 170 449q46 80 114 129q20 14 58 39h-69 q-166 0 -257 -63.5t-149 -172.5q-69 -130 -96 -214.5t-53 -166.5zM635 1636q9 6 23.5 17.5t26 18.5t28.5 18q20 -16 33.5 -45t13.5 -57t-25.5 -51.5t-66.5 -29.5q-2 16 -2 29t-31 100zM903 1636q14 12 78 54q20 -16 33.5 -45t13.5 -57t-25.5 -51.5t-66.5 -29.5 q-8 60 -33 129z" />
<glyph unicode="&#xc5;" horiz-adv-x="1441" d="M-506 275.5q0 123.5 86 238.5q49 68 118 112t122 44q12 0 12 -9t-29 -18q-53 -12 -110 -76q-100 -113 -100.5 -252t57 -209.5t160.5 -70.5q121 0 200 104q59 80 76.5 135.5t32.5 106.5l96 336h-219q-12 0 -12 6q0 14 22 36.5t37 22.5h195l20 70q65 218 117.5 306.5 t92.5 129.5t94 75q110 69 325 69h194q19 -1 19 -13q0 -20 -15 -20h-77q-18 -14 -25 -17q-123 -98 -214 -396q-34 -110 -58 -208h280q29 0 13 -22q-22 -29 -31.5 -32t-26.5 -3h-252l-30 -129q-48 -192 -48 -303q0 -197 164 -197q111 0 176.5 86t75.5 246q2 14 18.5 14 t16.5 -14q0 -173 -99 -291q-100 -119 -243 -119q-100 0 -156.5 69t-56.5 191q0 103 19.5 187t33.5 137l33 123h-287l-104 -326q-84 -270 -281 -359q-80 -36 -150.5 -36t-120.5 20.5t-86 56.5q-75 75 -75 198.5zM332 782h282q83 302 170 449q46 80 114 129q20 14 58 39h-69 q-166 0 -257 -63.5t-149 -172.5q-69 -130 -96 -214.5t-53 -166.5zM694 1669q0 74 53.5 126t129.5 52q71 0 125 -51q51 -50 51 -125q0 -72 -53 -127q-51 -53 -125 -53t-127.5 52t-53.5 126zM741 1669q0 -57 39 -97t94 -40t94.5 40t39.5 97t-39 96t-95 39q-55 0 -94 -39 t-39 -96z" />
<glyph unicode="&#xc6;" horiz-adv-x="2009" d="M-317 255q0 201 159 323q35 29 75 48t54.5 19t14.5 -8t-21 -16t-57 -43q-132 -126 -131 -291q0 -117 58.5 -187.5t156.5 -70.5q59 0 120.5 27.5t91.5 62.5q54 63 89 136.5t54.5 119t36.5 91.5q32 86 79 222h-227q-12 0 -7 10l72 60h188q10 29 17.5 50t25 71.5t39 106.5 t41.5 96q102 211 291 289q121 50 289 50h295q62 0 95 -13q69 -28 69 -155q0 -175 -195 -340q-66 -53 -92 -53q-8 0 -8 6t6 11q4 0 16 12q81 56 120 114q77 112 77 211q0 61 -36 98.5t-107.5 37.5t-150.5 -50q-98 -63 -211 -233q-70 -104 -140 -313h536q17 0 17 -9 q0 -2 -10 -12l-43 -43q-4 -2 -21 -2h-504q-53 -174 -53 -336t59.5 -247t156.5 -85t176 54.5t139 153t83 241.5q9 61 13 74.5t13 13.5t9 -26q0 -60 -23 -155t-52 -152.5t-80 -121.5q-139 -166 -304 -165q-129 0 -203.5 97t-74.5 265q0 143 18.5 219t28.5 125l10 45h-266 q-10 -27 -17.5 -46t-24 -65.5t-33.5 -93.5t-30 -81q-20 -49 -61 -113q-88 -143 -203.5 -223t-236.5 -80q-110 0 -189 84q-77 83 -77 185zM588 758h250q49 153 80.5 213.5t58.5 105.5q60 100 147 176q67 58 94 74q40 24 121 57h-106q-72 0 -138.5 -8t-152.5 -50t-124 -83 q-59 -64 -94 -139.5t-51 -109t-29 -67.5q-29 -75 -56 -169z" />
<glyph unicode="&#xc7;" horiz-adv-x="1060" d="M-205 979q0 130 112 235q109 101 257 101q20 0 20 -8t-3 -10.5t-27 -4.5q-72 -6 -144 -49q-143 -88 -143 -252q0 -92 51 -164q20 -29 32.5 -40t39.5 -25l24 45q99 187 260 365q27 30 58 59q202 194 352 194q80 0 127 -48t47 -134q0 -174 -160 -330q-145 -141 -372 -199 q-92 -24 -170 -24h-37q-36 0 -64 6q-92 -184 -92 -348.5t69.5 -246t188.5 -81.5q131 0 240 113q20 20 65 82q77 114 112 244q28 104 38 104q16 0 16 -37t-11 -81t-29 -90q-40 -98 -101 -175q-172 -219 -385 -219l-27 2l-20 -53h10q115 0 157 -62q21 -30 21 -67 q0 -72 -59.5 -116t-151.5 -44q-97 0 -159 33l20 41q57 -27 119.5 -27t101.5 30t39 77q0 86 -156 98l39 96q-111 23 -171 109t-60 225q0 103 37 238q17 76 67 180q-178 96 -178 258zM70 739q6 -2 11 -2l56 -6q16 -2 27 -2h20q63 0 140 16.5t137 44t119 76.5t104 106 q98 126 98 234q0 66 -44 107t-110 41t-122.5 -29t-109.5 -82q-92 -90 -128.5 -140.5t-55.5 -80t-38 -66.5q-39 -71 -104 -217z" />
<glyph unicode="&#xc8;" horiz-adv-x="1024" d="M-246 681q0 7 4 11l52 64q6 8 10 8t10 -2q12 -4 45 -4h94q6 18 11.5 31.5t9.5 23.5q96 240 338 447q143 125 231 150q39 11 95.5 11t96.5 -38.5t40 -117.5t-44.5 -170t-101.5 -139.5t-101.5 -75t-52.5 -26.5t-8 4t6 8l46 33q86 64 134 145.5t48 163.5q0 141 -139 142 q-119 0 -228 -101q-170 -162 -246 -373q-20 -53 -45 -126h545q8 0 8 -9.5t-21 -25.5t-38.5 -21.5t-58.5 -5.5h-455q-55 -141 -55 -318.5t60 -267.5t171 -90q125 0 234 115q66 72 110.5 165t48.5 169l6 90q0 12 11.5 12t11.5 -18v-23l2 -14q0 -221 -141 -400 q-64 -81 -146 -130.5t-170 -49.5q-131 0 -208.5 106.5t-77.5 284.5q0 214 53 373h-49q-93 0 -133 -18h-7q-6 0 -6 7zM465 1726q0 16 12 27.5t37 11.5t72 -45l243 -229h-45l-260 168q-59 39 -59 67z" />
<glyph unicode="&#xc9;" horiz-adv-x="1024" d="M-246 681q0 7 4 11l52 64q6 8 10 8t10 -2q12 -4 45 -4h94q6 18 11.5 31.5t9.5 23.5q96 240 338 447q143 125 231 150q39 11 95.5 11t96.5 -38.5t40 -117.5t-44.5 -170t-101.5 -139.5t-101.5 -75t-52.5 -26.5t-8 4t6 8l46 33q86 64 134 145.5t48 163.5q0 141 -139 142 q-119 0 -228 -101q-170 -162 -246 -373q-20 -53 -45 -126h545q8 0 8 -9.5t-21 -25.5t-38.5 -21.5t-58.5 -5.5h-455q-55 -141 -55 -318.5t60 -267.5t171 -90q125 0 234 115q66 72 110.5 165t48.5 169l6 90q0 12 11.5 12t11.5 -18v-23l2 -14q0 -221 -141 -400 q-64 -81 -146 -130.5t-170 -49.5q-131 0 -208.5 106.5t-77.5 284.5q0 214 53 373h-49q-93 0 -133 -18h-7q-6 0 -6 7zM528 1491l220 199q76 73 104 73q16 0 27.5 -13.5t11.5 -29.5t-9.5 -26.5t-25.5 -20.5t-19 -12t-8 -4l-247 -166h-54z" />
<glyph unicode="&#xca;" horiz-adv-x="1024" d="M-246 681q0 7 4 11l52 64q6 8 10 8t10 -2q12 -4 45 -4h94q6 18 11.5 31.5t9.5 23.5q96 240 338 447q143 125 231 150q39 11 95.5 11t96.5 -38.5t40 -117.5t-44.5 -170t-101.5 -139.5t-101.5 -75t-52.5 -26.5t-8 4t6 8l46 33q86 64 134 145.5t48 163.5q0 141 -139 142 q-119 0 -228 -101q-170 -162 -246 -373q-20 -53 -45 -126h545q8 0 8 -9.5t-21 -25.5t-38.5 -21.5t-58.5 -5.5h-455q-55 -141 -55 -318.5t60 -267.5t171 -90q125 0 234 115q66 72 110.5 165t48.5 169l6 90q0 12 11.5 12t11.5 -18v-23l2 -14q0 -221 -141 -400 q-64 -81 -146 -130.5t-170 -49.5q-131 0 -208.5 106.5t-77.5 284.5q0 214 53 373h-49q-93 0 -133 -18h-7q-6 0 -6 7zM395 1491l293 266h70l129 -266l-43 4l-137 174l-267 -178h-45z" />
<glyph unicode="&#xcb;" horiz-adv-x="1024" d="M-246 681q0 7 4 11l52 64q6 8 10 8t10 -2q12 -4 45 -4h94q6 18 11.5 31.5t9.5 23.5q96 240 338 447q143 125 231 150q39 11 95.5 11t96.5 -38.5t40 -117.5t-44.5 -170t-101.5 -139.5t-101.5 -75t-52.5 -26.5t-8 4t6 8l46 33q86 64 134 145.5t48 163.5q0 141 -139 142 q-119 0 -228 -101q-170 -162 -246 -373q-20 -53 -45 -126h545q8 0 8 -9.5t-21 -25.5t-38.5 -21.5t-58.5 -5.5h-455q-55 -141 -55 -318.5t60 -267.5t171 -90q125 0 234 115q66 72 110.5 165t48.5 169l6 90q0 12 11.5 12t11.5 -18v-23l2 -14q0 -221 -141 -400 q-64 -81 -146 -130.5t-170 -49.5q-131 0 -208.5 106.5t-77.5 284.5q0 214 53 373h-49q-93 0 -133 -18h-7q-6 0 -6 7zM473 1636l80 54q45 -36 45 -101q0 -29 -25.5 -52.5t-64.5 -29.5q-4 16 -4 23.5t-5 31t-26 74.5zM741 1636l78 54q20 -16 33.5 -45t13.5 -57t-25.5 -51.5 t-66.5 -29.5q-9 72 -33 129z" />
<glyph unicode="&#xcc;" horiz-adv-x="1138" d="M-303 338q0 152 110 266l58 60q16 16 25.5 18t9.5 -6t-9 -17q-119 -117 -118 -256q0 -140 113 -235q114 -96 278 -96q82 0 136 23.5t93 74.5q71 93 129 219q10 23 19.5 42.5t18.5 41t20.5 48t25.5 63.5h-221q-10 0 -10 5t4 9l55 55q8 10 13.5 11.5t25.5 1.5h160 q14 43 25.5 74.5t20.5 62.5q81 279 81 375t-29 128.5t-94 32.5q-133 0 -245 -151q-79 -105 -112 -251q-8 -38 -15 -78q-9 -49 -12 -54.5t-10 -5.5t-7 14q0 41 26 143q44 176 174 328q131 146 264 146q82 0 129.5 -47.5t47.5 -129.5q0 -146 -125 -505l-29 -84h143 q15 -1 15 -6t-11 -23l-24 -37q-10 -20 -27 -20h-125q-16 -32 -28 -62q-81 -161 -168 -268q-98 -125 -199.5 -183.5t-202 -58.5t-170 25.5t-120.5 70.5q-109 95 -109 236zM522 1726q0 16 12.5 27.5t37 11.5t71.5 -45l244 -229h-45l-260 168q-60 39 -60 67z" />
<glyph unicode="&#xcd;" horiz-adv-x="1138" d="M-303 338q0 152 110 266l58 60q16 16 25.5 18t9.5 -6t-9 -17q-119 -117 -118 -256q0 -140 113 -235q114 -96 278 -96q82 0 136 23.5t93 74.5q71 93 129 219q10 23 19.5 42.5t18.5 41t20.5 48t25.5 63.5h-221q-10 0 -10 5t4 9l55 55q8 10 13.5 11.5t25.5 1.5h160 q14 43 25.5 74.5t20.5 62.5q81 279 81 375t-29 128.5t-94 32.5q-133 0 -245 -151q-79 -105 -112 -251q-8 -38 -15 -78q-9 -49 -12 -54.5t-10 -5.5t-7 14q0 41 26 143q44 176 174 328q131 146 264 146q82 0 129.5 -47.5t47.5 -129.5q0 -146 -125 -505l-29 -84h143 q15 -1 15 -6t-11 -23l-24 -37q-10 -20 -27 -20h-125q-16 -32 -28 -62q-81 -161 -168 -268q-98 -125 -199.5 -183.5t-202 -58.5t-170 25.5t-120.5 70.5q-109 95 -109 236zM586 1491l217 199q79 73 106 73q16 0 27.5 -13.5t11.5 -29.5t-9 -26.5t-25.5 -20.5t-19.5 -12t-7 -4 l-250 -166h-51z" />
<glyph unicode="&#xce;" horiz-adv-x="1138" d="M-303 338q0 152 110 266l58 60q16 16 25.5 18t9.5 -6t-9 -17q-119 -117 -118 -256q0 -140 113 -235q114 -96 278 -96q82 0 136 23.5t93 74.5q71 93 129 219q10 23 19.5 42.5t18.5 41t20.5 48t25.5 63.5h-221q-10 0 -10 5t4 9l55 55q8 10 13.5 11.5t25.5 1.5h160 q14 43 25.5 74.5t20.5 62.5q81 279 81 375t-29 128.5t-94 32.5q-133 0 -245 -151q-79 -105 -112 -251q-8 -38 -15 -78q-9 -49 -12 -54.5t-10 -5.5t-7 14q0 41 26 143q44 176 174 328q131 146 264 146q82 0 129.5 -47.5t47.5 -129.5q0 -146 -125 -505l-29 -84h143 q15 -1 15 -6t-11 -23l-24 -37q-10 -20 -27 -20h-125q-16 -32 -28 -62q-81 -161 -168 -268q-98 -125 -199.5 -183.5t-202 -58.5t-170 25.5t-120.5 70.5q-109 95 -109 236zM453 1491l290 266h72l129 -266l-43 4l-137 174l-266 -178h-45z" />
<glyph unicode="&#xcf;" horiz-adv-x="1138" d="M-303 338q0 152 110 266l58 60q16 16 25.5 18t9.5 -6t-9 -17q-119 -117 -118 -256q0 -140 113 -235q114 -96 278 -96q82 0 136 23.5t93 74.5q71 93 129 219q10 23 19.5 42.5t18.5 41t20.5 48t25.5 63.5h-221q-10 0 -10 5t4 9l55 55q8 10 13.5 11.5t25.5 1.5h160 q14 43 25.5 74.5t20.5 62.5q81 279 81 375t-29 128.5t-94 32.5q-133 0 -245 -151q-79 -105 -112 -251q-8 -38 -15 -78q-9 -49 -12 -54.5t-10 -5.5t-7 14q0 41 26 143q44 176 174 328q131 146 264 146q82 0 129.5 -47.5t47.5 -129.5q0 -146 -125 -505l-29 -84h143 q15 -1 15 -6t-11 -23l-24 -37q-10 -20 -27 -20h-125q-16 -32 -28 -62q-81 -161 -168 -268q-98 -125 -199.5 -183.5t-202 -58.5t-170 25.5t-120.5 70.5q-109 95 -109 236zM530 1636l78 54q20 -16 33.5 -45t13.5 -57t-25.5 -51.5t-66.5 -29.5q-2 16 -2 23.5t-4 20.5t-10 35 t-17 50zM799 1636q40 32 78 54q20 -16 33.5 -45t13.5 -57t-26 -51.5t-67 -29.5q-7 57 -32 129z" />
<glyph unicode="&#xd0;" horiz-adv-x="1687" d="M-389 -3q0 5 4 13l90 86q30 26 46 27.5t27 1.5h18q7 0 16 -2h55l98 -4q27 -2 47 -2h35q117 0 190 88t123 235q8 25 16.5 48.5t15.5 53t17.5 67.5t22.5 93h-215q0 -2 -2 -1t-4 1t-4 5l10 28q8 23 15.5 30t21.5 7h197l8 37q6 29 13 53.5t20 68.5q29 98 124 185 q63 55 129 86t83.5 31t17.5 -9t-19 -16q-16 -2 -53 -22q-115 -60 -164 -217q-25 -75 -53 -201h295q14 0 14 -11q0 -17 -10 -36.5t-15 -22t-20 -2.5h-282q-19 -68 -36 -138q-42 -165 -91 -238q-94 -140 -275 -214l135 -12l111 -12q92 -10 219 -10t215 40t154.5 108.5 t116.5 160.5q102 191 102 426q0 270 -154 429t-406.5 159t-444.5 -198t-191 -501q0 -47 6 -84l10 -63q6 -47 17 -64q4 -12 4 -14t-4 -6l-7 -2q-27 0 -55 121q-28 105 -28 200q0 258 202 441q220 198 527 198q287 0 460 -167q172 -167 172 -447q0 -346 -249 -577.5 t-613 -231.5q-79 0 -235 12q-247 19 -329 19q-114 0 -230 -33q-16 -6 -23.5 -6t-7.5 5z" />
<glyph unicode="&#xd1;" horiz-adv-x="1669" d="M-307 289q0 72 15 116q37 106 99 164l62 60q14 14 21.5 16t7.5 0l4 -4q0 -6 -19 -23q-45 -40 -69 -90q-47 -93 -47 -168t19 -122.5t53 -81.5q72 -74 164.5 -74t160 36t102.5 93t70 167q69 215 86 292l82 364q26 110 26 168q0 25 -11 63t-30.5 66.5t-58.5 28.5 q-72 0 -139 -91q-135 -183 -135 -413v-22l6 -62q0 -6 -8 -6q-10 0 -14.5 24.5t-5.5 34.5t-5 43l-2 62q0 131 45 227q77 176 255 251q52 22 98 22t65 -36q39 -70 54 -123.5t31.5 -111t38.5 -139.5q52 -193 86 -310q36 -124 103 -337l39 -117q16 -52 45 -109q8 31 15 53 q10 30 83 335l91 368l57 264q18 82 18 134t-37 53q-14 0 -34.5 -9.5t-23.5 -11.5t-9 -2t-6 6q0 11 53 43l37 23q70 41 102 41q47 0 47 -53q0 -11 -5 -40.5t-6 -42t-5 -26.5t-14.5 -51t-22.5 -78l-285 -981l-18 -66q51 -55 117 -55q34 0 78 23q51 28 79.5 51.5t34.5 24t6 -12 t-49 -50.5t-83 -59q-75 -48 -138 -48t-96 14t-61 51q-48 66 -103 256l-170 596q-42 146 -72 223l-6 -37q-100 -576 -209 -802q-62 -126 -176 -212q-115 -87 -221 -87q-109 0 -185 91q-77 91 -77 216zM754 1530q37 154 149 153q25 0 60 -8l28 -6q75 -16 109 -16q90 0 108 69 h29q-4 -68 -50 -112.5t-112 -44.5q-25 0 -110 16l-33 6q-40 8 -68 8q-60 0 -80 -65h-30z" />
<glyph unicode="&#xd2;" horiz-adv-x="1251" d="M-178 504q0 321 196 602q112 159 279 266q100 63 154 70q6 0 6 -8t-33 -16.5t-113 -76.5q-115 -94 -201 -224q-169 -253 -169 -574q0 -340 211 -439q65 -30 139 -30q205 0 352 200q110 151 161 414q25 127 25 230q0 197 -60 302t-171 105l-59 -6q-8 0 -9 6q0 7 9 25 l55 77q18 26 75.5 3t92.5 -48q168 -124 168 -405q0 -280 -146 -559q-121 -232 -332 -356q-130 -78 -217 -78q-169 0 -286 137q-127 155 -127 383zM391 1726q0 16 13.5 27.5t38 11.5t69.5 -45l244 -229h-45l-260 168q-60 39 -60 67z" />
<glyph unicode="&#xd3;" horiz-adv-x="1251" d="M-178 504q0 321 196 602q112 159 279 266q100 63 154 70q6 0 6 -8t-33 -16.5t-113 -76.5q-115 -94 -201 -224q-169 -253 -169 -574q0 -340 211 -439q65 -30 139 -30q205 0 352 200q110 151 161 414q25 127 25 230q0 197 -60 302t-171 105l-59 -6q-8 0 -9 6q0 7 9 25 l55 77q18 26 75.5 3t92.5 -48q168 -124 168 -405q0 -280 -146 -559q-121 -232 -332 -356q-130 -78 -217 -78q-169 0 -286 137q-127 155 -127 383zM455 1491l219 199q79 73 106 73q16 0 26.5 -13.5t10.5 -29.5t-9 -26.5t-25.5 -20.5t-19.5 -12t-7 -4l-248 -166h-53z" />
<glyph unicode="&#xd4;" horiz-adv-x="1251" d="M-178 504q0 321 196 602q112 159 279 266q100 63 154 70q6 0 6 -8t-33 -16.5t-113 -76.5q-115 -94 -201 -224q-169 -253 -169 -574q0 -340 211 -439q65 -30 139 -30q205 0 352 200q110 151 161 414q25 127 25 230q0 197 -60 302t-171 105l-59 -6q-8 0 -9 6q0 7 9 25 l55 77q18 26 75.5 3t92.5 -48q168 -124 168 -405q0 -280 -146 -559q-121 -232 -332 -356q-130 -78 -217 -78q-169 0 -286 137q-127 155 -127 383zM324 1491l290 266h72l127 -266l-43 4l-137 174l-264 -178h-45z" />
<glyph unicode="&#xd5;" horiz-adv-x="1251" d="M-178 504q0 321 196 602q112 159 279 266q100 63 154 70q6 0 6 -8t-33 -16.5t-113 -76.5q-115 -94 -201 -224q-169 -253 -169 -574q0 -340 211 -439q65 -30 139 -30q205 0 352 200q110 151 161 414q25 127 25 230q0 197 -60 302t-171 105l-59 -6q-8 0 -9 6q0 7 9 25 l55 77q18 26 75.5 3t92.5 -48q168 -124 168 -405q0 -280 -146 -559q-121 -232 -332 -356q-130 -78 -217 -78q-169 0 -286 137q-127 155 -127 383zM358 1530q37 154 150 153q25 0 59 -8l29 -6q75 -16 109 -16q90 0 108 69h29q-4 -68 -50.5 -112.5t-111.5 -44.5q-25 0 -111 16 l-32 6q-40 8 -68 8q-61 0 -80 -65h-31z" />
<glyph unicode="&#xd6;" horiz-adv-x="1251" d="M-178 504q0 321 196 602q112 159 279 266q100 63 154 70q6 0 6 -8t-33 -16.5t-113 -76.5q-115 -94 -201 -224q-169 -253 -169 -574q0 -340 211 -439q65 -30 139 -30q205 0 352 200q110 151 161 414q25 127 25 230q0 197 -60 302t-171 105l-59 -6q-8 0 -9 6q0 7 9 25 l55 77q18 26 75.5 3t92.5 -48q168 -124 168 -405q0 -280 -146 -559q-121 -232 -332 -356q-130 -78 -217 -78q-169 0 -286 137q-127 155 -127 383zM401 1636q16 16 78 54q20 -16 33.5 -45t13.5 -57t-26.5 -51.5t-65.5 -29.5q-8 66 -33 129zM670 1636q72 51 78 54 q45 -36 45 -101q0 -29 -26 -52.5t-65 -29.5q-7 57 -32 129z" />
<glyph unicode="&#xd7;" horiz-adv-x="1144" d="M-219 74l422 420l-422 421l43 41l422 -419l420 419l43 -41l-420 -421l420 -420l-43 -43l-420 420l-422 -420z" />
<glyph unicode="&#xd8;" horiz-adv-x="1099" d="M-281 502q0 147 50 299q103 330 365 533q81 62 136.5 85t69.5 23t14 -8t-30 -20q-59 -22 -125 -81q-361 -322 -361 -788q0 -219 94 -348l609 1122q-25 6 -49 6l-56 -6q-8 0 -8 8q0 7 8 23l56 77q8 12 20 13q42 0 84 -21l98 183h64l-115 -207q41 -29 62.5 -49.5 t52.5 -69.5q69 -109 69 -297q0 -284 -145 -561q-121 -232 -332 -356q-130 -78 -233.5 -78t-202.5 73h-2l-102 -204h-60l123 235l2 2q-156 156 -156 412zM-33 158q20 -16 44 -34t75 -34t126.5 -16t166 51t158 143t104.5 193t61.5 228t24.5 224q0 186 -59 308q-14 29 -29.5 44 t-46.5 33z" />
<glyph unicode="&#xd9;" horiz-adv-x="1441" d="M-274 706q0 75 8 135t28 115q35 98 125 212t199 182.5t182.5 68.5t109.5 -41t36 -108q0 -66 -28 -158q-46 -151 -80 -251.5t-50 -152t-28.5 -86t-19.5 -61t-15 -53.5q-45 -162 -46 -268q0 -162 121 -162q133 0 246 176q132 206 219 498q76 254 76 391q0 23 -2 25.5 t-12 15.5q-45 56 -45 131q0 115 69 115q57 0 58 -82v-13l-3 -114q103 -22 136.5 -59.5t33.5 -87.5q0 -80 -28 -173l-139 -479q-29 -98 -38 -141q-18 -87 -18 -134q0 -78 49 -77q54 0 106 62q101 121 101 267v11q0 20 16.5 20t16.5 -67.5t-48 -160.5t-118 -150.5t-126 -57.5 q-111 0 -111 125q0 75 34 188l181 598q20 63 20 117.5t-19.5 82.5t-68.5 44q-60 -393 -211 -711q-102 -219 -215 -333.5t-225 -114.5q-78 0 -128 62.5t-50 140t17 144t60 204.5l117 362q54 159 63 206q17 89 17 139t-26.5 79t-66.5 29t-78 -17.5t-77 -48.5 q-80 -62 -147.5 -169.5t-105.5 -235t-38 -246.5q0 -52 8.5 -88.5t8.5 -42.5t-11 -6t-16 22l-14 62q-10 45 -10 120zM461 1726q0 16 12 27.5t37 11.5t72 -45l243 -229h-45l-262 168q-57 40 -57 67z" />
<glyph unicode="&#xda;" horiz-adv-x="1441" d="M-274 706q0 75 8 135t28 115q35 98 125 212t199 182.5t182.5 68.5t109.5 -41t36 -108q0 -66 -28 -158q-46 -151 -80 -251.5t-50 -152t-28.5 -86t-19.5 -61t-15 -53.5q-45 -162 -46 -268q0 -162 121 -162q133 0 246 176q132 206 219 498q76 254 76 391q0 23 -2 25.5 t-12 15.5q-45 56 -45 131q0 115 69 115q57 0 58 -82v-13l-3 -114q103 -22 136.5 -59.5t33.5 -87.5q0 -80 -28 -173l-139 -479q-29 -98 -38 -141q-18 -87 -18 -134q0 -78 49 -77q54 0 106 62q101 121 101 267v11q0 20 16.5 20t16.5 -67.5t-48 -160.5t-118 -150.5t-126 -57.5 q-111 0 -111 125q0 75 34 188l181 598q20 63 20 117.5t-19.5 82.5t-68.5 44q-60 -393 -211 -711q-102 -219 -215 -333.5t-225 -114.5q-78 0 -128 62.5t-50 140t17 144t60 204.5l117 362q54 159 63 206q17 89 17 139t-26.5 79t-66.5 29t-78 -17.5t-77 -48.5 q-80 -62 -147.5 -169.5t-105.5 -235t-38 -246.5q0 -52 8.5 -88.5t8.5 -42.5t-11 -6t-16 22l-14 62q-10 45 -10 120zM524 1491l217 199q49 45 69.5 59t37.5 14q16 0 27.5 -13.5t11.5 -29.5t-9.5 -26.5t-25.5 -20.5q-20 -13 -27 -16l-250 -166h-51z" />
<glyph unicode="&#xdb;" horiz-adv-x="1441" d="M-274 706q0 75 8 135t28 115q35 98 125 212t199 182.5t182.5 68.5t109.5 -41t36 -108q0 -66 -28 -158q-46 -151 -80 -251.5t-50 -152t-28.5 -86t-19.5 -61t-15 -53.5q-45 -162 -46 -268q0 -162 121 -162q133 0 246 176q132 206 219 498q76 254 76 391q0 23 -2 25.5 t-12 15.5q-45 56 -45 131q0 115 69 115q57 0 58 -82v-13l-3 -114q103 -22 136.5 -59.5t33.5 -87.5q0 -80 -28 -173l-139 -479q-29 -98 -38 -141q-18 -87 -18 -134q0 -78 49 -77q54 0 106 62q101 121 101 267v11q0 20 16.5 20t16.5 -67.5t-48 -160.5t-118 -150.5t-126 -57.5 q-111 0 -111 125q0 75 34 188l181 598q20 63 20 117.5t-19.5 82.5t-68.5 44q-60 -393 -211 -711q-102 -219 -215 -333.5t-225 -114.5q-78 0 -128 62.5t-50 140t17 144t60 204.5l117 362q54 159 63 206q17 89 17 139t-26.5 79t-66.5 29t-78 -17.5t-77 -48.5 q-80 -62 -147.5 -169.5t-105.5 -235t-38 -246.5q0 -52 8.5 -88.5t8.5 -42.5t-11 -6t-16 22l-14 62q-10 45 -10 120zM391 1491l291 266h72l129 -266l-43 4l-138 174l-266 -178h-45z" />
<glyph unicode="&#xdc;" horiz-adv-x="1441" d="M-274 706q0 75 8 135t28 115q35 98 125 212t199 182.5t182.5 68.5t109.5 -41t36 -108q0 -66 -28 -158q-46 -151 -80 -251.5t-50 -152t-28.5 -86t-19.5 -61t-15 -53.5q-45 -162 -46 -268q0 -162 121 -162q133 0 246 176q132 206 219 498q76 254 76 391q0 23 -2 25.5 t-12 15.5q-45 56 -45 131q0 115 69 115q57 0 58 -82v-13l-3 -114q103 -22 136.5 -59.5t33.5 -87.5q0 -80 -28 -173l-139 -479q-56 -196 -56 -274.5t49 -77.5q54 0 106 62q101 121 101 267v11q0 20 16.5 20t16.5 -67.5t-48 -160.5t-118 -150.5t-126 -57.5q-111 0 -111 125 q0 75 41 207q55 178 174 579q20 63 20 117.5t-19.5 82.5t-68.5 44q-60 -393 -211 -711q-102 -219 -215 -333.5t-225 -114.5q-78 0 -128 62.5t-50 140t17 144t60 204.5l117 362q54 159 63 206q17 89 17 139t-26.5 79t-66.5 29t-78 -17.5t-77 -48.5q-80 -62 -147.5 -169.5 t-105.5 -235t-38 -246.5q0 -52 8.5 -88.5t8.5 -42.5t-11 -6t-16 22l-14 62q-10 45 -10 120zM469 1636q9 6 24 18q23 18 54 36q20 -16 33.5 -45t13.5 -57t-25.5 -51.5t-66.5 -29.5q-7 56 -33 129zM737 1636q14 12 78 54q20 -16 33.5 -45t13.5 -57t-25.5 -51.5t-66.5 -29.5 q-8 60 -33 129z" />
<glyph unicode="&#xdd;" horiz-adv-x="1327" d="M-280 128q-1 8 14 24l41 30q53 37 67 37l72 -12q45 0 106.5 29.5t124 83.5t117.5 136.5t95 176.5q83 195 83 403q0 162 -78 260q-79 99 -208 99q-139 0 -238 -140q-125 -174 -125 -417q0 -94 15 -149q38 -130 47 -130q0 -6 -7 -6q-20 0 -45.5 55.5t-38.5 102.5 q-28 96 -28 192q0 231 162 402.5t340 171.5q147 0 233 -112t86 -278.5t-41 -303t-114.5 -252t-172.5 -199t-246 -148.5q-9 -4 -9.5 -11t26.5 -20t82 -26.5t101 -13.5t89.5 9t73 21.5t58.5 30.5q51 34 122 113q137 156 195 321q10 25 31.5 108t48 187.5t39 153.5t18.5 84 l27 137q4 27 7 43t2 23.5t-3 23t-2 21.5v13t14 15h2l76 33q14 6 29 6q26 1 26 -22q0 -17 -8 -41q-10 -29 -10 -33l-248 -1043q-33 -153 -59.5 -212.5t-51 -106.5t-61 -89.5t-54.5 -59.5t-36 -33q-20 -18 -90 -62l12 -2l57 -4l45 -4h23q72 0 142.5 37t107.5 81 q59 71 81.5 121t30 71.5t12.5 43.5q10 45 15.5 96.5t7.5 57.5t11 6q22 0 22 -88q0 -176 -168 -344q-170 -166 -358 -166q-35 0 -84 6l-103 12l-112 15q-52 6 -85 6q-49 0 -71 -8t-26.5 -9t-9.5 -3.5t-15 -2.5t-10 8q0 10 13 18l19 13l9 4q2 2 3 2t6 4.5t8 8.5t19 16l29 23 q21 18 37 18q43 0 133 -12l64 -8l22 -4q17 -5 41.5 -5t56 19t77.5 73t68 101q44 98 75.5 209.5t42 148.5t16.5 66q11 52 18 119q-89 -146 -126 -193q-226 -287 -449 -287q-51 0 -197 56l-45 16q-28 8 -49 21q-54 12 -69 12t-27 -4h-6q-8 0 -10 9zM633 1491l219 199 q76 73 98 73t33.5 -13.5t11.5 -29.5t-9 -26.5t-25.5 -20.5t-19.5 -12t-7 -4l-248 -166h-53z" />
<glyph unicode="&#xde;" horiz-adv-x="1138" d="M-276 -228q0 3 4 19v2l272 1372q12 63 12 111.5t-13 69t-39.5 20.5t-57.5 -16q-33 -11 -45 -23q-10 -6 -13 -6l-4 -2l-6 -2l-4 4v4q0 10 37 33l123 69q46 29 82 29q59 0 59 -67q0 -20 -5 -49l-11 -70l-312 -1424q-12 -53 -12 -71t10.5 -30.5t25.5 -12.5t23.5 16t22.5 68 l113 428q96 362 134 468q65 182 113 252t93 113t93 75q103 69 193 69t147.5 -82t57.5 -195q0 -218 -158 -397q-76 -84 -121 -123q-73 -62 -208 -158q100 -31 172 -30.5t140.5 42t109.5 119.5l30 58q2 6 11 6q8 0 8 -8v-2q0 -12 -19.5 -50.5t-44.5 -72.5q-117 -172 -252 -172 q-29 0 -68.5 7t-97.5 17l-32 6q-134 29 -154 29h-63q-18 0 -19 8q0 12 31 35l37 29q14 12 33 12l90 -10q45 0 84 18.5t100.5 70.5t115.5 117.5t93 134.5q82 147 82 269q0 105 -55 176q-45 55 -130 55q-232 0 -390 -448q-59 -165 -136 -461l-49 -192q-6 -23 -9 -39.5 t-13 -57.5q-32 -130 -50 -182q-25 -70 -84 -69q-33 0 -55 23.5t-22 42.5v25z" />
<glyph unicode="&#xdf;" horiz-adv-x="833" d="M-291 10l168 678q12 51 22.5 89t19.5 74q61 244 132 402q43 92 118 143.5t169 51.5t150.5 -68.5t56.5 -169.5q0 -187 -82 -303q-50 -70 -158 -112q-18 -6 -18 -15q0 -3 7 -5.5t13 -5.5t15.5 -9t19.5 -12q53 -35 83 -95.5t30 -134.5q0 -152 -124 -339.5t-268 -186.5 q-53 0 -88 20l-24 15q-29 16 -29 26t2 17l29 108v2q2 12 9 12.5t9 -3t6 -13.5q31 -102 127 -102q101 0 176 116q76 118 76 264t-61.5 228t-171.5 102q-18 2 -19 17q0 16 19 16l8 -2h19q72 0 106 6q72 13 119 86q61 103 61 275q0 207 -160 207q-88 0 -133 -80 q-38 -75 -80 -256l-243 -1047l-10 -6h-97z" />
<glyph unicode="&#xe0;" horiz-adv-x="757" d="M-266 172q0 141 65.5 273.5t177.5 217.5t211 85q66 0 106 -35t46 -95l-102 -514v-2q-2 -4 -2 -11v-11q0 -24 20 -12q4 4 7 6t13 12t35 33.5t37 40.5q10 10 16.5 10t6.5 -12t-56.5 -68.5t-86 -78t-52.5 -21.5q-43 0 -43 47q0 33 21 119l26 131q-80 -135 -167 -215 t-149 -80t-96 49t-34 131zM-180 202q0 -52 26.5 -94t55.5 -42q58 0 123.5 56t99 109.5t53 96.5t34.5 87q32 94 32 153.5t-34 88.5t-89 29q-113 0 -184 -113q-83 -120 -109 -272q-8 -47 -8 -99zM0 1079q0 16 12.5 28.5t35 12.5t73.5 -47l244 -229h-46l-260 168q-59 39 -59 67 z" />
<glyph unicode="&#xe1;" horiz-adv-x="757" d="M-266 172q0 141 65.5 273.5t177.5 217.5t211 85q66 0 106 -35t46 -95l-102 -514v-2q-2 -4 -2 -11v-11q0 -24 20 -12q4 4 7 6t13 12t35 33.5t37 40.5q10 10 16.5 10t6.5 -12t-56.5 -68.5t-86 -78t-52.5 -21.5q-43 0 -43 47q0 33 21 119l26 131q-80 -135 -167 -215 t-149 -80t-96 49t-34 131zM-180 202q0 -52 26.5 -94t55.5 -42q58 0 123.5 56t99 109.5t53 96.5t34.5 87q32 94 32 153.5t-34 88.5t-89 29q-113 0 -184 -113q-83 -120 -109 -272q-8 -47 -8 -99zM63 844l220 198q77 74 98.5 74t33 -13.5t11.5 -29.5t-9 -26.5t-25.5 -20.5 t-19.5 -12t-7 -4l-248 -166h-54z" />
<glyph unicode="&#xe2;" horiz-adv-x="757" d="M-266 172q0 141 65.5 273.5t177.5 217.5t211 85q66 0 106 -35t46 -95l-102 -514v-2q-2 -4 -2 -11v-11q0 -24 20 -12q4 4 7 6t13 12t35 33.5t37 40.5q10 10 16.5 10t6.5 -12t-56.5 -68.5t-86 -78t-52.5 -21.5q-43 0 -43 47q0 33 21 119l26 131q-80 -135 -167 -215 t-149 -80t-96 49t-34 131zM-180 202q0 -52 26.5 -94t55.5 -42q58 0 123.5 56t99 109.5t53 96.5t34.5 87q32 94 32 153.5t-34 88.5t-89 29q-113 0 -184 -113q-83 -120 -109 -272q-8 -47 -8 -99zM-70 844l293 266h72l127 -266l-43 4l-137 174l-267 -178h-45z" />
<glyph unicode="&#xe3;" horiz-adv-x="757" d="M-266 172q0 141 65.5 273.5t177.5 217.5t211 85q66 0 106 -35t46 -95l-102 -514v-2q-2 -4 -2 -11v-11q0 -24 20 -12q4 4 7 6t13 12t35 33.5t37 40.5q10 10 16.5 10t6.5 -12t-56.5 -68.5t-86 -78t-52.5 -21.5q-43 0 -43 47q0 33 21 119l26 131q-80 -135 -167 -215 t-149 -80t-96 49t-34 131zM-180 202q0 -52 26.5 -94t55.5 -42q58 0 123.5 56t99 109.5t53 96.5t34.5 87q32 94 32 153.5t-34 88.5t-89 29q-113 0 -184 -113q-83 -120 -109 -272q-8 -47 -8 -99zM-33 883q33 154 150 153q21 0 57 -8l31 -6q75 -16 108 -16q88 0 109 71h29 q-4 -70 -51.5 -114.5t-112.5 -44.5q-48 0 -109 16l-33 8q-30 6 -63 6q-65 0 -84 -65h-31z" />
<glyph unicode="&#xe4;" horiz-adv-x="757" d="M-266 172q0 141 65.5 273.5t177.5 217.5t211 85q66 0 106 -35t46 -95l-102 -514v-2q-2 -4 -2 -11v-11q0 -24 20 -12q4 4 7 6t13 12t35 33.5t37 40.5q10 10 16.5 10t6.5 -12t-56.5 -68.5t-86 -78t-52.5 -21.5q-43 0 -43 47q0 33 21 119l26 131q-80 -135 -167 -215 t-149 -80t-96 49t-34 131zM-180 202q0 -52 26.5 -94t55.5 -42q58 0 123.5 56t99 109.5t53 96.5t34.5 87q32 94 32 153.5t-34 88.5t-89 29q-113 0 -184 -113q-83 -120 -109 -272q-8 -47 -8 -99zM10 989q22 22 78 53q20 -16 33.5 -44.5t13.5 -56.5t-26.5 -51.5t-65.5 -29.5 q-7 52 -33 129zM276 989q52 39 80 53q18 -16 31.5 -44.5t13.5 -56.5t-25.5 -51.5t-64.5 -29.5q-8 65 -35 129z" />
<glyph unicode="&#xe5;" horiz-adv-x="757" d="M-266 172q0 141 65.5 273.5t177.5 217.5t211 85q66 0 106 -35t46 -95l-102 -514v-2q-2 -4 -2 -11v-11q0 -24 20 -12q4 4 7 6t13 12t35 33.5t37 40.5q10 10 16.5 10t6.5 -12t-56.5 -68.5t-86 -78t-52.5 -21.5q-43 0 -43 47q0 33 21 119l26 131q-80 -135 -167 -215 t-149 -80t-96 49t-34 131zM-180 202q0 -52 26.5 -94t55.5 -42q58 0 123.5 56t99 109.5t53 96.5t34.5 87q32 94 32 153.5t-34 88.5t-89 29q-113 0 -184 -113q-83 -120 -109 -272q-8 -47 -8 -99zM70 1022q0 74 52 126t128 52q73 0 125.5 -52.5t52.5 -123.5t-52 -127 q-50 -53 -126 -53t-128 52t-52 126zM117 1022q0 -57 38 -97t93 -40t95 41t40 97t-39 95t-94 39t-94 -39t-39 -96z" />
<glyph unicode="&#xe6;" horiz-adv-x="909" d="M-303 148q0 87 119 164q79 50 159 85l166 80v23q0 88 -41 139t-104 51q-124 0 -186 -133q-6 -12 -13 -12q-6 0 -6 11t11.5 39t27.5 50q72 106 182 107q90 0 148 -58q28 -25 57 -100q32 54 88 98q84 70 152.5 70t102.5 -33t34 -94t-39 -119q-66 -97 -213 -141 q-29 -10 -41 -10t-12 12q0 9 24 18q166 57 166 213q0 78 -63 78q-47 0 -90 -45t-74 -149.5t-31 -223.5q0 -201 133 -200q75 0 148 65l33 31q20 16 29 16t9 -13t-34.5 -44.5t-54 -48.5t-35.5 -31q-68 -51 -144 -51q-150 0 -188 217q-30 -62 -88 -125q-92 -92 -170.5 -92 t-120 42t-41.5 114zM-197 158q0 -90 84 -90q59 0 120 55q111 100 134 305l2 23q0 4 -2 4l-237 -150q-53 -35 -77 -68.5t-24 -78.5z" />
<glyph unicode="&#xe7;" horiz-adv-x="606" d="M-297 -346l23 41q56 -27 117.5 -27t101 30t39.5 77q0 86 -154 98l53 129q-66 14 -104.5 75.5t-38.5 155.5t37 196.5t102 188.5q104 139 244 140q58 0 103.5 -24.5t45.5 -47.5t-22 -70l-10 -22q-8 -14 -17 -14q-2 0 -8 8q-20 55 -60 87t-87 32q-91 0 -165 -133 q-73 -129 -73 -298q0 -199 147 -198q137 0 216 194q4 10 6 15.5t4 9.5q0 10 9 10t9 -13q0 -33 -50 -114.5t-117.5 -128.5t-131.5 -51l-37 -90h11q118 0 158 -62q20 -30 20 -67q0 -72 -58.5 -116t-150.5 -44q-98 0 -162 33z" />
<glyph unicode="&#xe8;" horiz-adv-x="530" d="M-262 224q0 216 127 380q55 70 120.5 111t115 41t79 -34t29.5 -75t-19.5 -80t-53.5 -77q-65 -74 -177 -142l-59 -33q-4 -2 -13.5 -2t-9.5 6t12 15h2q4 4 13 8q94 55 146 125t52 141q0 35 -19.5 55.5t-61 20.5t-83.5 -47t-74 -150.5t-32 -218.5q0 -199 133 -198 q109 0 182 88l23 26q4 4 8 4t4 -6q0 -27 -53 -80q-111 -111 -203 -110.5t-140 64t-48 168.5zM-115 1079q0 16 13.5 28.5t36 12.5t73.5 -47l244 -229h-45l-262 168q-60 39 -60 67z" />
<glyph unicode="&#xe9;" horiz-adv-x="530" d="M-262 224q0 216 127 380q55 70 120.5 111t115 41t79 -34t29.5 -75t-19.5 -80t-53.5 -77q-65 -74 -177 -142l-59 -33q-4 -2 -13.5 -2t-9.5 6t12 15h2q4 4 13 8q94 55 146 125t52 141q0 35 -19.5 55.5t-61 20.5t-83.5 -47t-74 -150.5t-32 -218.5q0 -199 133 -198 q109 0 182 88l23 26q4 4 8 4t4 -6q0 -27 -53 -80q-111 -111 -203 -110.5t-140 64t-48 168.5zM-49 844l217 198q49 45 69.5 59.5t36.5 14.5t27.5 -13.5t11.5 -29.5t-9 -26.5t-25.5 -20.5t-19.5 -12t-7 -4l-250 -166h-51z" />
<glyph unicode="&#xea;" horiz-adv-x="530" d="M-262 224q0 216 127 380q55 70 120.5 111t115 41t79 -34t29.5 -75t-19.5 -80t-53.5 -77q-65 -74 -177 -142l-59 -33q-4 -2 -13.5 -2t-9.5 6t12 15h2q4 4 13 8q94 55 146 125t52 141q0 35 -19.5 55.5t-61 20.5t-83.5 -47t-74 -150.5t-32 -218.5q0 -199 133 -198 q109 0 182 88l23 26q4 4 8 4t4 -6q0 -27 -53 -80q-111 -111 -203 -110.5t-140 64t-48 168.5zM-145 844l292 266h70l129 -266l-43 4l-137 174l-266 -178h-45z" />
<glyph unicode="&#xeb;" horiz-adv-x="530" d="M-262 224q0 216 127 380q55 70 120.5 111t115 41t79 -34t29.5 -75t-19.5 -80t-53.5 -77q-65 -74 -177 -142l-59 -33q-4 -2 -13.5 -2t-9.5 6t12 15h2q4 4 13 8q94 55 146 125t52 141q0 35 -19.5 55.5t-61 20.5t-83.5 -47t-74 -150.5t-32 -218.5q0 -199 133 -198 q109 0 182 88l23 26q4 4 8 4t4 -6q0 -27 -53 -80q-111 -111 -203 -110.5t-140 64t-48 168.5zM-104 989q12 8 25 19q22 17 52 34q20 -16 33.5 -44.5t13.5 -56.5t-25.5 -51.5t-66.5 -29.5q-6 51 -32 129zM164 989q31 27 72 49l6 4q20 -16 33.5 -44.5t13.5 -56.5t-25.5 -51.5 t-66.5 -29.5q-7 52 -33 129z" />
<glyph unicode="&#xec;" horiz-adv-x="417" d="M-252 68q0 33 25 127l106 360q23 78 23 100t-13 23q-16 0 -49 -19l-16 -6q-8 0 -8 8.5t4 12.5l143 94q16 10 23 10q25 0 24 -53q0 -44 -26 -133l-74 -258q-22 -103 -36.5 -154t-14.5 -69q0 -31 28 -31q63 0 140 129l8 16l2 2q4 10 14 11q6 -1 6 -10q0 -28 -40 -81 t-82 -90q-72 -63 -125 -63q-61 0 -62 74zM-207 1079q0 16 13.5 28.5t35 12.5t72.5 -47l246 -229h-45l-262 168q-60 39 -60 67z" />
<glyph unicode="&#xed;" horiz-adv-x="417" d="M-252 68q0 33 25 127l106 360q23 78 23 100t-13 23q-16 0 -49 -19l-16 -6q-8 0 -8 8.5t4 12.5l143 94q16 10 23 10q25 0 24 -53q0 -44 -26 -133l-74 -258q-22 -103 -36.5 -154t-14.5 -69q0 -31 28 -31q63 0 140 129l8 16l2 2q4 10 14 11q6 -1 6 -10q0 -28 -40 -81 t-82 -90q-72 -63 -125 -63q-61 0 -62 74zM-141 844l217 198q49 45 69.5 59.5t36.5 14.5t27.5 -13.5t11.5 -29.5t-10 -26.5t-26.5 -20.5t-18.5 -12t-6 -4l-250 -166h-51z" />
<glyph unicode="&#xee;" horiz-adv-x="417" d="M-274 844l290 266h72l127 -266l-41 4l-139 174l-264 -178h-45zM-252 68q0 33 25 127l106 360q23 78 23 100t-13 23q-16 0 -49 -19l-16 -6q-8 0 -8 8.5t4 12.5l143 94q16 10 23 10q25 0 24 -53q0 -44 -26 -133l-74 -258q-22 -103 -36.5 -154t-14.5 -69q0 -31 28 -31 q63 0 140 129l8 16l2 2q4 10 14 11q6 -1 6 -10q0 -28 -40 -81t-82 -90q-72 -63 -125 -63q-61 0 -62 74z" />
<glyph unicode="&#xef;" horiz-adv-x="417" d="M-252 68q0 33 25 127l106 360q23 78 23 100t-13 23q-16 0 -49 -19l-16 -6q-8 0 -8 8.5t4 12.5l143 94q16 10 23 10q25 0 24 -53q0 -44 -26 -133l-74 -258q-22 -103 -36.5 -154t-14.5 -69q0 -31 28 -31q63 0 140 129l8 16l2 2q4 10 14 11q6 -1 6 -10q0 -28 -40 -81 t-82 -90q-72 -63 -125 -63q-61 0 -62 74zM-197 989q22 22 78 53q20 -16 33.5 -44.5t13.5 -56.5t-25.5 -51.5t-66.5 -29.5q-7 52 -33 129zM72 989q28 25 78 53q20 -16 33.5 -44.5t13.5 -56.5t-27 -51.5t-66 -29.5q-7 57 -32 129z" />
<glyph unicode="&#xf0;" d="M-260 255q0 122 61.5 228.5t178.5 178.5q43 29 92 49t61 20t12 -5t-36 -21q-125 -53 -198 -171t-73 -264q0 -94 38 -152.5t99 -58.5q45 0 86 29q66 41 108 113.5t67.5 198.5t25.5 252q0 314 -82 474q-10 19 -24 45l-211 -118q-2 -2 -6 -2q-12 0 -13 18q0 18 25 35 l180 106q-59 108 -227 209q-12 4 -13 11q0 4 3 4h9q5 0 13 -4q120 -35 264 -191l180 102q8 4 13.5 4t5.5 -23.5t-27 -39.5l-143 -82q16 -23 28.5 -40t21.5 -34.5t17.5 -38t31.5 -77.5q54 -128 54 -303t-38.5 -296.5t-128.5 -234.5q-141 -178 -275 -178q-80 0 -130 67.5 t-50 189.5z" />
<glyph unicode="&#xf1;" horiz-adv-x="833" d="M-239.5 7q-0.5 7 3.5 24l74 297q4 18 6 29.5t4 15.5q46 184 46 267q0 25 -11.5 25.5t-40.5 -6.5h-8v25l166 80q6 2 14 2q20 0 20.5 -14t-1.5 -19v-6l-2 -2l-25 -104l-59 -213q8 10 14 19t21.5 29.5t40 50.5t51.5 55q37 37 123 104q107 77 163 77q31 0 49.5 -23.5 t18.5 -65.5t-14 -87l-101 -362q-14 -55 -14 -87t29 -32h10l8 4q21 14 31 14t10 -11q0 -14 -20 -32q-88 -63 -134.5 -63t-46.5 76q0 40 19 110l71 252q35 132 35 180.5t-41 49.5q-66 0 -191 -130q-92 -97 -124.5 -170t-45.5 -122q-17 -66 -27 -125q-13 -84 -15 -91t-2 -14 q-2 -14 -19 -14h-73q-12 0 -12.5 7zM4 883q37 154 152 153q21 0 57 -8l31 -6q75 -16 108 -16q88 0 109 71h26q-4 -70 -50 -114.5t-111 -44.5q-50 0 -111 16l-33 8q-27 6 -61 6q-67 0 -86 -65h-31z" />
<glyph unicode="&#xf2;" d="M-256 252q0 102 50 204.5t115.5 160t111 85t55.5 27.5t10 -4t-4 -8h-2q-17 -12 -53 -43q-84 -76 -133.5 -181.5t-49.5 -206.5t36 -159.5t92 -58.5t106.5 35.5t88.5 94.5q85 134 85 294q0 69 -16.5 113t-32 54.5t-53 11.5t-37.5 11q0 6 26 20l4 3l80 36q14 7 21 7 q27 0 51 -35q57 -69 57 -157.5t-45 -193t-117 -191.5q-142 -171 -264 -171q-77 0 -128 74q-54 76 -54 178zM-18 1079q0 16 12 28.5t35 12.5t73 -47l244 -229h-45l-260 168q-59 39 -59 67z" />
<glyph unicode="&#xf3;" d="M-256 252q0 102 50 204.5t115.5 160t111 85t55.5 27.5t10 -4t-4 -8h-2q-17 -12 -53 -43q-84 -76 -133.5 -181.5t-49.5 -206.5t36 -159.5t92 -58.5t106.5 35.5t88.5 94.5q85 134 85 294q0 69 -16.5 113t-32 54.5t-53 11.5t-37.5 11q0 6 26 20l4 3l80 36q14 7 21 7 q27 0 51 -35q57 -69 57 -157.5t-45 -193t-117 -191.5q-142 -171 -264 -171q-77 0 -128 74q-54 76 -54 178zM45 844l219 198q47 45 67.5 59.5t37.5 14.5q16 0 27.5 -13.5t11.5 -29.5t-9.5 -26.5t-26 -20.5t-19.5 -12t-7 -4l-250 -166h-51z" />
<glyph unicode="&#xf4;" d="M-256 252q0 102 50 204.5t115.5 160t111 85t55.5 27.5t10 -4t-4 -8h-2q-17 -12 -53 -43q-84 -76 -133.5 -181.5t-49.5 -206.5t36 -159.5t92 -58.5t106.5 35.5t88.5 94.5q85 134 85 294q0 69 -16.5 113t-32 54.5t-53 11.5t-37.5 11q0 6 26 20l4 3l80 36q14 7 21 7 q27 0 51 -35q57 -69 57 -157.5t-45 -193t-117 -191.5q-142 -171 -264 -171q-77 0 -128 74q-54 76 -54 178zM-88 844l293 266h69l129 -266l-43 4l-137 174l-266 -178h-45z" />
<glyph unicode="&#xf5;" d="M-256 252q0 102 50 204.5t115.5 160t111 85t55.5 27.5t10 -4t-4 -8h-2q-17 -12 -53 -43q-84 -76 -133.5 -181.5t-49.5 -206.5t36 -159.5t92 -58.5t106.5 35.5t88.5 94.5q85 134 85 294q0 69 -16.5 113t-32 54.5t-53 11.5t-37.5 11q0 6 26 20l4 3l80 36q14 7 21 7 q27 0 51 -35q57 -69 57 -157.5t-45 -193t-117 -191.5q-142 -171 -264 -171q-77 0 -128 74q-54 76 -54 178zM-51 883q33 154 149 153q20 0 58 -8l30 -6q75 -16 109 -16q88 0 108 71h29q-4 -70 -51 -114.5t-113 -44.5q-49 0 -110 16l-33 8q-27 6 -60 6q-66 0 -85 -65h-31z" />
<glyph unicode="&#xf6;" d="M-256 252q0 102 50 204.5t115.5 160t111 85t55.5 27.5t10 -4t-4 -8h-2q-17 -12 -53 -43q-84 -76 -133.5 -181.5t-49.5 -206.5t36 -159.5t92 -58.5t106.5 35.5t88.5 94.5q85 134 85 294q0 69 -16.5 113t-32 54.5t-53 11.5t-37.5 11q0 6 26 20l4 3l80 36q14 7 21 7 q27 0 51 -35q57 -69 57 -157.5t-45 -193t-117 -191.5q-142 -171 -264 -171q-77 0 -128 74q-54 76 -54 178zM-10 989q12 8 26 19q27 20 54 34q45 -36 45 -100q0 -29 -26 -52.5t-64 -29.5q-4 16 -4.5 23.5t-5.5 30t-25 75.5zM258 989q16 12 34 25l44 28q20 -16 33.5 -44.5 t13.5 -56.5t-25.5 -51.5t-66.5 -29.5q-7 52 -33 129z" />
<glyph unicode="&#xf7;" horiz-adv-x="1214" d="M-219 465v57h997v-57h-997zM233 49v182h91v-182h-91zM233 756v182h91v-182h-91z" />
<glyph unicode="&#xf8;" d="M-256 271q0 85 48 183q73 151 224 246q46 29 58 29t12 -4t-4 -8h-2q-17 -12 -53 -43q-84 -76 -133.5 -182.5t-49.5 -210.5q0 -101 41 -160l289 549q-6 0 -10 2l-35 2q-16 0 -16 7t26 21l4 3l64 30l82 156h49l-78 -148q37 -20 64.5 -74.5t27.5 -128t-45 -178t-117 -191.5 t-138 -129t-108 -42t-69 10l-76 -143h-47l86 164q-43 31 -68.5 93t-25.5 147zM-84 88q29 -20 70.5 -20t92 35.5t88.5 95t61.5 135.5t23.5 142q0 127 -41 177z" />
<glyph unicode="&#xf9;" horiz-adv-x="833" d="M-219 111q0 69 29 178l71 307l2 2q2 10 2 18v13q0 25 -16 24q-13 0 -49 -24l-19 -8q-8 0 -8 9t3 12t13.5 8t49.5 28l49 27q10 6 21.5 12t25.5 15q25 16 31 16q20 0 20 -25q0 -10 -4 -23v-4l-106 -454q-17 -70 -17 -101q0 -80 74 -80q25 0 55.5 13.5t84.5 61.5t82 88 t43 86q28 86 49.5 200.5t21.5 124.5q0 29 -21 29q-14 0 -22 -7l-33 -16v-2h-4q-4 -4 -8 -4t-4 6q-2 2 -2 7q0 8 28 24l103 59l6 2q37 23 52 23t22.5 -8.5t7.5 -22t-8 -37.5v-2l-146 -555v-2q-2 -8 -2 -23q0 -29 23 -28q27 0 59 39l70 76l20 20q2 0 2 2l6 2q13 0 13 -12 t-13 -23l-92 -92q-10 -12 -41 -39t-44 -35q-33 -20 -56 -20q-43 0 -43 55v23l4 18l14 96q-96 -102 -165.5 -147t-133.5 -45q-100 0 -100 115zM2 1079q0 16 13.5 28.5t35 12.5t72.5 -47l244 -229h-45l-261 168q-59 39 -59 67z" />
<glyph unicode="&#xfa;" horiz-adv-x="833" d="M-219 111q0 69 29 178l71 307l2 2q2 10 2 18v13q0 25 -16 24q-13 0 -49 -24l-19 -8q-8 0 -8 9t3 12t13.5 8t49.5 28l49 27q10 6 21.5 12t25.5 15q25 16 31 16q20 0 20 -25q0 -10 -4 -23v-4l-106 -454q-17 -70 -17 -101q0 -80 74 -80q25 0 55.5 13.5t84.5 61.5t82 88 t43 86q28 86 49.5 200.5t21.5 124.5q0 29 -21 29q-14 0 -22 -7l-33 -16v-2h-4q-4 -4 -8 -4t-4 6q-2 2 -2 7q0 8 28 24l103 59l6 2q37 23 52 23t22.5 -8.5t7.5 -22t-8 -37.5v-2l-146 -555v-2q-2 -8 -2 -23q0 -29 23 -28q27 0 59 39l70 76l20 20q2 0 2 2l6 2q13 0 13 -12 t-13 -23l-92 -92q-10 -12 -41 -39t-44 -35q-33 -20 -56 -20q-43 0 -43 55v23l4 18l14 96q-96 -102 -165.5 -147t-133.5 -45q-100 0 -100 115zM66 844l219 198q77 74 106 74q16 0 26.5 -13.5t10.5 -29.5t-9 -26.5t-25.5 -20.5t-19.5 -12t-7 -4l-248 -166h-53z" />
<glyph unicode="&#xfb;" horiz-adv-x="833" d="M-219 111q0 69 29 178l71 307l2 2q2 10 2 18v13q0 25 -16 24q-13 0 -49 -24l-19 -8q-8 0 -8 9t3 12t13.5 8t49.5 28l49 27q10 6 21.5 12t25.5 15q25 16 31 16q20 0 20 -25q0 -10 -4 -23v-4l-106 -454q-17 -70 -17 -101q0 -80 74 -80q25 0 55.5 13.5t84.5 61.5t82 88 t43 86q28 86 49.5 200.5t21.5 124.5q0 29 -21 29q-14 0 -22 -7l-33 -16v-2h-4q-4 -4 -8 -4t-4 6q-2 2 -2 7q0 8 28 24l103 59l6 2q37 23 52 23t22.5 -8.5t7.5 -22t-8 -37.5v-2l-146 -555v-2q-2 -8 -2 -23q0 -29 23 -28q27 0 59 39l70 76l20 20q2 0 2 2l6 2q13 0 13 -12 t-13 -23l-92 -92q-10 -12 -41 -39t-44 -35q-33 -20 -56 -20q-43 0 -43 55v23l4 18l14 96q-96 -102 -165.5 -147t-133.5 -45q-100 0 -100 115zM-66 844l291 266h72l127 -266l-43 4l-137 174l-264 -178h-46z" />
<glyph unicode="&#xfc;" horiz-adv-x="833" d="M-219 111q0 69 29 178l71 307l2 2q2 10 2 18v13q0 25 -16 24q-13 0 -49 -24l-19 -8q-8 0 -8 9t3 12t13.5 8t49.5 28l49 27q10 6 21.5 12t25.5 15q25 16 31 16q20 0 20 -25q0 -10 -4 -23v-4l-106 -454q-17 -70 -17 -101q0 -80 74 -80q25 0 55.5 13.5t84.5 61.5t82 88 t43 86q28 86 49.5 200.5t21.5 124.5q0 29 -21 29q-14 0 -22 -7l-33 -16v-2h-4q-4 -4 -8 -4t-4 6q-2 2 -2 7q0 8 28 24l103 59l6 2q37 23 52 23t22.5 -8.5t7.5 -22t-8 -37.5v-2l-146 -555v-2q-2 -8 -2 -23q0 -29 23 -28q27 0 59 39l70 76l20 20q2 0 2 2l6 2q13 0 13 -12 t-13 -23l-92 -92q-10 -12 -41 -39t-44 -35q-33 -20 -56 -20q-43 0 -43 55v23l4 18l14 96q-96 -102 -165.5 -147t-133.5 -45q-100 0 -100 115zM12 989q22 22 78 53q20 -16 33.5 -44.5t13.5 -56.5t-26.5 -51.5t-65.5 -29.5q-7 52 -33 129zM281 989q41 35 77 53q45 -36 45 -100 q0 -29 -25.5 -52.5t-64.5 -29.5q-7 57 -32 129z" />
<glyph unicode="&#xfd;" horiz-adv-x="796" d="M-256 -320.5q0 7.5 2 10.5t12 17q15 21 27 39q16 16 72 16h39q87 0 125.5 34t54.5 63.5t24.5 45t14.5 33t13 42t19 65.5l33 121l-139 -96q-97 -68 -146.5 -68t-83.5 42t-34 84q0 56 28 161l80 270q20 63 20.5 99t-30.5 36q-18 0 -38.5 -6t-23.5 -6h-7.5t-4.5 12t19 21 l30 14q81 35 129 35t48 -51q0 -21 -9 -39l-118 -408l-2 -14q-56 -189 49 -189q40 0 87.5 33t65 44.5t31.5 22.5t27 21l32 25l41 147q8 27 13.5 43.5t8.5 29.5q11 47 26 111q24 97 24 122q0 35 -33 34q-14 0 -28 -6l-19 -8l-12 -4l-21 -6q-8 0 -8 10q0 38 147 74q38 10 54 10 q35 0 35 -43q0 -29 -10 -64l-170 -608q-43 -150 -118 -217q-34 -31 -97 -67l-21 -13q12 -2 20 -2h13q121 0 187.5 38t111.5 128q8 18 16 19q12 0 12 -14.5t-15 -49.5t-38 -63q-102 -144 -291 -144h-32l-109 6q-41 6 -51 6l-16 -2l-29 -2l-19 -2h-10q-8 0 -8 7.5zM84 844 l217 198q49 45 69.5 59.5t37.5 14.5q16 0 27 -13.5t11 -29.5t-10 -26.5t-26.5 -20.5t-18.5 -12t-6 -4l-250 -166h-51z" />
<glyph unicode="&#xfe;" horiz-adv-x="757" d="M-332 -297l70 270q16 67 28.5 108.5t18.5 66t16 60.5t17.5 62.5t11.5 42.5l213 801q37 137 37 197q0 37 -31 37l-59 -17q-8 0 -8 10t18 17l152 61q16 8 28 8q31 0 31 -34q-4 -16 -11 -50t-30 -121t-66 -249t-114 -436l60 65l56 57q70 59 139 59.5t110.5 -45.5t41.5 -111 q0 -149 -123 -316q-37 -51 -155 -158q47 -14 76 -14q76 0 105 21q7 5 24 18l10 4q8 0 8 -11t-35 -40q-78 -66 -160 -66q-27 0 -57 6l-82 17l-33 4l-26 2l-23 -2q-4 -2 -8 -2h-10q-8 4 -8 11t18 32q33 49 70 49l82 -11q23 0 41 12q39 28 125 165q67 112 67 231 q0 66 -25.5 102.5t-61.5 36.5t-67.5 -15t-62.5 -42q-68 -60 -109 -135q-34 -73 -56.5 -149t-36.5 -124q-16 -50 -53.5 -192.5t-41.5 -158t-8 -25.5l-25 -82q-8 -23 -12 -30t-14 -7h-56z" />
<glyph unicode="&#xff;" horiz-adv-x="796" d="M-256 -320.5q0 7.5 2 10.5t12 17q15 21 27 39q16 16 72 16h39q87 0 125.5 34t54.5 63.5t24.5 45t14.5 33t13 42t19 65.5l33 121l-139 -96q-97 -68 -146.5 -68t-83.5 42t-34 84q0 56 28 161l80 270q20 63 20.5 99t-30.5 36q-18 0 -38.5 -6t-23.5 -6h-7.5t-4.5 12t19 21 l30 14q81 35 129 35t48 -51q0 -21 -9 -39l-118 -408l-2 -14q-56 -189 49 -189q40 0 87.5 33t65 44.5t31.5 22.5t27 21l32 25l41 147q8 27 13.5 43.5t8.5 29.5q11 47 26 111q24 97 24 122q0 35 -33 34q-14 0 -28 -6l-19 -8l-12 -4l-21 -6q-8 0 -8 10q0 38 147 74q38 10 54 10 q35 0 35 -43q0 -29 -10 -64l-170 -608q-43 -150 -118 -217q-34 -31 -97 -67l-21 -13q12 -2 20 -2h13q121 0 187.5 38t111.5 128q8 18 16 19q12 0 12 -14.5t-15 -49.5t-38 -63q-102 -144 -291 -144h-32l-109 6q-41 6 -51 6l-16 -2l-29 -2l-19 -2h-10q-8 0 -8 7.5zM29 989 q23 23 77 53q20 -16 34 -44.5t14 -56.5t-26 -51.5t-67 -29.5q-6 51 -32 129zM297 989q31 27 72 49l6 4q20 -16 33.5 -44.5t13.5 -56.5t-26.5 -51.5t-65.5 -29.5q-7 52 -33 129z" />
<glyph unicode="&#x152;" horiz-adv-x="1781" d="M-270 519.5q0 128.5 46 273.5q114 358 354 532q152 109 214 117q12 0 12 -9t-10 -13.5t-19.5 -9.5t-34.5 -20q-59 -35 -122.5 -84.5t-124.5 -136t-105 -189.5q-92 -215 -92 -448q0 -215 103 -337q92 -115 235 -115q98 0 194 52q204 110 301 440q50 171 50 352 q0 180 -63.5 293.5t-165.5 113.5h-18q-7 0 -23 -4h-12q-10 0 -11 8l4 13v2l54 84q6 10 43.5 10t100 -36t105.5 -95q90 -119 91 -303l-2 -52l-3 -6q151 216 309 346q159 132 277 132q59 0 96 -46t37 -124q0 -172 -159 -320q-98 -88 -134 -88q-6 0 -6 6q0 11 30 30 q66 42 128 134t61 173q0 155 -124 155q-116 0 -242 -113q-91 -82 -179 -245q-38 -69 -100 -238h545q10 0 10 -7.5t-10 -17.5t-17 -16t-12 -15q-16 -16 -28 -16h-512q-49 -167 -49 -290t16 -202t71.5 -126.5t142.5 -47.5t170 63.5t146 186.5q74 133 74 269q0 18 10 18 q17 0 17 -66q0 -121 -65 -256.5t-170 -218t-233 -82.5t-201 103.5t-73 296.5v32q-29 -41 -46 -61t-40 -49q-225 -262 -438 -262q-78 0 -154.5 36.5t-130 100.5t-86 164t-32.5 228.5z" />
<glyph unicode="&#x153;" horiz-adv-x="1024" d="M-252 254q0 100 48 202.5t114 161.5q131 117 168 117q8 0 8 -6q0 -11 -18 -27l-21 -18q-136 -124 -179 -290q-18 -66 -18 -142t38 -126t95.5 -50t104.5 34.5t84 91.5q80 122 80 283q0 92 -19.5 138.5t-91.5 48.5q-22 0 -22 10q0 6 4 10l106 58q14 6 25.5 6t47.5 -46 t56 -104q51 64 79 84.5t53 37.5q42 28 98 28q110 0 110 -109q0 -152 -204 -274q-76 -47 -93.5 -47t-17.5 8q0 10 33 24q59 25 114 97q57 66 58 145q0 80 -66 80q-53 0 -82 -32t-50 -72.5t-36 -91.5q-35 -115 -35 -212.5t40 -147.5t112 -50q79 0 133 57l29 31q16 16 26 16 t11 -8q0 -14 -47 -74q-90 -102 -203 -102q-78 0 -132.5 53t-66.5 146q-52 -74 -115 -121q-88 -70 -165 -70q-83 0 -137 74q-56 78 -56 178z" />
<glyph unicode="&#x178;" horiz-adv-x="1327" d="M-280 128q-1 8 14 24l41 30q53 37 67 37l72 -12q45 0 106.5 29.5t124 83.5t117.5 136.5t95 176.5q83 195 83 403q0 162 -78 260q-79 99 -208 99q-139 0 -238 -140q-125 -174 -125 -417q0 -94 15 -149q38 -130 47 -130q0 -6 -7 -6q-20 0 -45.5 55.5t-38.5 102.5 q-28 96 -28 192q0 231 162 402.5t340 171.5q147 0 233 -112t86 -278.5t-41 -303t-114.5 -252t-172.5 -199t-246 -148.5q-9 -4 -9.5 -11t26.5 -20t82 -26.5t101 -13.5t89.5 9t73 21.5t58.5 30.5q51 34 122 113q137 156 195 321q10 25 31.5 108t48 187.5t39 153.5t18.5 84 l27 137q4 27 7 43t2 23.5t-3 23t-2 21.5v13t14 15h2l76 33q14 6 29 6q26 1 26 -22q0 -17 -8 -41q-10 -29 -10 -33l-248 -1043q-33 -153 -59.5 -212.5t-51 -106.5t-61 -89.5t-54.5 -59.5t-36 -33q-20 -18 -90 -62l12 -2l57 -4l45 -4h23q72 0 142.5 37t107.5 81 q59 71 81.5 121t30 71.5t12.5 43.5q10 45 15.5 96.5t7.5 57.5t11 6q22 0 22 -88q0 -176 -168 -344q-170 -166 -358 -166q-35 0 -84 6l-103 12l-112 15q-52 6 -85 6q-49 0 -71 -8t-26.5 -9t-9.5 -3.5t-15 -2.5t-10 8q0 10 13 18l19 13l9 4q2 2 3 2t6 4.5t8 8.5t19 16l29 23 q21 18 37 18q43 0 133 -12l64 -8l22 -4q17 -5 41.5 -5t56 19t77.5 73t68 101q44 98 75.5 209.5t42 148.5t16.5 66q11 52 18 119q-89 -146 -126 -193q-226 -287 -449 -287q-51 0 -197 56l-45 16q-28 8 -49 21q-54 12 -69 12t-27 -4h-6q-8 0 -10 9zM559 1636q7 7 23 18t26 18 t29 18q45 -36 45 -101q0 -29 -25.5 -52.5t-64.5 -29.5q-4 16 -4 29t-29 100zM825 1636l78 54q20 -16 33.5 -45t13.5 -57t-25.5 -51.5t-66.5 -29.5q-9 72 -33 129z" />
<glyph unicode="&#x2c6;" horiz-adv-x="417" d="M-240 844l291 266h72l129 -266l-43 4l-137 174l-267 -178h-45z" />
<glyph unicode="&#x2dc;" horiz-adv-x="417" d="M-205 883q37 154 152 153q21 0 57 -8l31 -6q75 -16 108 -16q88 0 109 69h29q-4 -68 -51.5 -112.5t-112.5 -44.5q-50 0 -111 16l-33 8q-27 6 -55 6q-72 0 -92 -65h-31z" />
<glyph unicode="&#x2000;" horiz-adv-x="923" />
<glyph unicode="&#x2001;" horiz-adv-x="1847" />
<glyph unicode="&#x2002;" horiz-adv-x="923" />
<glyph unicode="&#x2003;" horiz-adv-x="1847" />
<glyph unicode="&#x2004;" horiz-adv-x="615" />
<glyph unicode="&#x2005;" horiz-adv-x="461" />
<glyph unicode="&#x2006;" horiz-adv-x="307" />
<glyph unicode="&#x2007;" horiz-adv-x="307" />
<glyph unicode="&#x2008;" horiz-adv-x="230" />
<glyph unicode="&#x2009;" horiz-adv-x="369" />
<glyph unicode="&#x200a;" horiz-adv-x="102" />
<glyph unicode="&#x2010;" horiz-adv-x="681" d="M-154 309q0 13 35 61t49 61q26 25 86 30q137 13 149.5 19.5t22.5 23.5q4 8 7.5 12t5.5 7t2 4q0 6 12 8q6 -1 6 -8t-8 -21q-9 -15 -17.5 -35.5t-14 -28.5t-9.5 -14q-29 -39 -78 -41l-55 -4l-49 -6q-47 -6 -68 -15q-26 -12 -44.5 -35.5t-24.5 -23.5t-7 6z" />
<glyph unicode="&#x2011;" horiz-adv-x="681" d="M-154 309q0 13 35 61t49 61q26 25 86 30q137 13 149.5 19.5t22.5 23.5q4 8 7.5 12t5.5 7t2 4q0 6 12 8q6 -1 6 -8t-8 -21q-9 -15 -17.5 -35.5t-14 -28.5t-9.5 -14q-29 -39 -78 -41l-55 -4l-49 -6q-47 -6 -68 -15q-26 -12 -44.5 -35.5t-24.5 -23.5t-7 6z" />
<glyph unicode="&#x2012;" horiz-adv-x="681" d="M-154 309q0 13 35 61t49 61q26 25 86 30q137 13 149.5 19.5t22.5 23.5q4 8 7.5 12t5.5 7t2 4q0 6 12 8q6 -1 6 -8t-8 -21q-9 -15 -17.5 -35.5t-14 -28.5t-9.5 -14q-29 -39 -78 -41l-55 -4l-49 -6q-47 -6 -68 -15q-26 -12 -44.5 -35.5t-24.5 -23.5t-7 6z" />
<glyph unicode="&#x2013;" horiz-adv-x="833" d="M-332 408l10 75h844l-10 -75h-844z" />
<glyph unicode="&#x2014;" horiz-adv-x="2048" d="M-72 408l11 75h1536l-11 -75h-1536z" />
<glyph unicode="&#x2018;" horiz-adv-x="342" d="M-72 1227q0 43 8 64q20 47 68.5 97t64 50t15.5 -15q0 -8 -14 -22q-47 -53 -47 -123t30 -70q6 0 27 6h8q14 0 14 -13t-22 -30l-27 -18q-62 -43 -84 -43q-16 0 -28.5 37t-12.5 80z" />
<glyph unicode="&#x2019;" horiz-adv-x="342" d="M-90 1352.5q0 7.5 3 9.5t15 12l49 37q28 21 49 21t35 -29q25 -43 25 -80t-5 -50t-27 -35q-72 -72 -88.5 -78.5t-20.5 -8.5h-2q-10 0 -10.5 8t10.5 21q41 47 41 94t-39 59l-21 6q-14 6 -14 13.5z" />
<glyph unicode="&#x201a;" horiz-adv-x="417" d="M-250 -227q0 4 12 16l37 45q49 61 49 138t-15 96t-79 26v15l125 92q6 6 13 6t27 -33q36 -59 36 -121q0 -143 -121 -241l-24 -21q-35 -29 -50 -29q-10 0 -10 11z" />
<glyph unicode="&#x201c;" horiz-adv-x="493" d="M-162 1224q0 42 8 64q13 36 82 113q35 35 50.5 35t15.5 -15q0 -8 -4 -10l-15 -16q-43 -49 -43 -119t31 -70q3 0 21 4h4l2 2h6q16 0 16 -13t-22 -30l-27 -18q-62 -43 -84 -43q-16 0 -28.5 37t-12.5 79zM86 1226q0 44 8 64q21 52 68 99t63 47t16.5 -10.5t-3.5 -14.5 l-15 -16q-45 -52 -45 -125q0 -29 9.5 -46.5t21.5 -17.5q4 0 20 4h7l2 2h6q16 0 16 -14t-22 -29l-29 -18q-69 -43 -83.5 -43t-27 37t-12.5 81z" />
<glyph unicode="&#x201d;" horiz-adv-x="681" d="M-71.5 1348.5q-0.5 5.5 20.5 21.5l33 23q32 22 45.5 29t27.5 7.5t31 -26.5q20 -37 20 -74q0 -84 -77 -149q-39 -33 -53.5 -33t-14.5 6t14 20t25.5 43t11.5 60t-14 45t-41.5 18t-28 9.5zM201 1350q0 6 8 11t16 12t19 13q10 6 19 13.5t29 18.5t35 11.5t33.5 -31.5t18.5 -69 q0 -84 -78 -149q-39 -33 -53 -33q-28 0 -7 20q46 44 46 92t-15.5 62t-43 18t-27.5 11z" />
<glyph unicode="&#x201e;" horiz-adv-x="681" d="M-246 68q0 13 23 28l67 49q29 25 63 -14t34 -93t-88 -140q-37 -37 -57.5 -37t-20.5 11t4 15l16 23q20 31 28.5 50.5t8.5 48t-7 34.5t-32.5 9t-32 6t-6.5 10zM10 69.5q0 8.5 10 18.5l82 57q27 23 56 -6q39 -45 39 -94q0 -76 -84 -149q-41 -35 -61.5 -35t-20.5 14 q0 3 20 33q43 49 43 87t-9 45q-11 8 -36 11.5t-32 6.5t-7 11.5z" />
<glyph unicode="&#x2022;" horiz-adv-x="958" d="M137 670q0 140 99 238q104 102 237 102q143 0 246 -99q100 -96 100 -240q0 -71 -26.5 -133.5t-72.5 -109.5q-98 -100 -241 -100q-140 0 -241 100q-101 99 -101 242z" />
<glyph unicode="&#x2026;" horiz-adv-x="1671" d="M-219 0v182h90v-182h-90zM463 0v182h90v-182h-90zM1145 0v182h90v-182h-90z" />
<glyph unicode="&#x202f;" horiz-adv-x="369" />
<glyph unicode="&#x2039;" horiz-adv-x="530" d="M-260 390q0 11 22 28l336 203q27 16 36 16t9 -6q0 -7 -20 -27l-240 -201q-14 -12 -14 -23t18 -38l121 -190q4 -4 4 -10q0 -7 -8 -7t-29 21l-223 209q-12 14 -12 25z" />
<glyph unicode="&#x203a;" horiz-adv-x="530" d="M-270 139q0 6 18 21l170 127l29 20q10 10 23 19q47 37 46.5 57.5t-26.5 58.5l-111 166l-2 2q-4 8 -4 14.5t5 6.5q10 0 20 -10l196 -179q56 -52 56 -66t-39 -40l-344 -199q-15 -10 -26 -10t-11 12z" />
<glyph unicode="&#x205f;" horiz-adv-x="461" />
<glyph unicode="&#x20ac;" horiz-adv-x="948" d="M-305 522l18 53h128q42 0 57 3q12 45 26 86v2l-188 4l18 53h191q97 252 276 448q105 120 229 169q44 18 82 18t70.5 -11.5t59.5 -27.5q59 -36 59 -78q0 -18 -15 -63q-27 -76 -34 -105l-15 -4q-16 0 -13 20.5t3 30.5q0 199 -143 199q-131 0 -260 -194q-102 -154 -178 -402 h426l-19 -53l-426 -2q-17 -67 -22 -93h354l-19 -53h-346q-16 -88 -16 -144t11 -120.5t41 -117.5q69 -120 204 -120q173 0 293 170q24 24 24 -8q0 -22 -47.5 -79.5t-135 -100.5t-176.5 -43t-152.5 33t-106.5 87q-86 108 -86 273q0 84 18 170h-190z" />
<glyph unicode="&#x2122;" horiz-adv-x="2048" d="M258 1130l10 207h580l10 -207h-29q-6 94 -42.5 132t-122.5 38h-76v-598q0 -18 4 -28q8 -39 86 -39h14v-27h-268v27h10q43 0 62.5 8t24.5 25q7 23 7 80v552h-73q-96 0 -129 -40.5t-39 -129.5h-29zM905 608v27q62 0 80 18q14 10 18.5 35t4.5 92v434q0 62 -12 75 q-24 24 -87 24v24h164l246 -620l254 620h164v-24q-43 -4 -62 -8q-35 -13 -35 -61v-554q0 -8 5 -16q8 -39 81 -39h9v-27h-248v27h10q70 0 80 43q4 18 4 59v506l-256 -635h-22l-254 635v-467q0 -77 7 -99q13 -42 95 -42v-27h-246z" />
<glyph unicode="&#xe000;" horiz-adv-x="768" d="M0 0v768h768v-768h-768z" />
<glyph unicode="&#xfb01;" horiz-adv-x="872" d="M-242 25q0 8 5.5 26.5t15.5 50.5q15 48 59 220l84 331h-145l28 76h132l79 320q48 199 111 265q104 111 211 111q27 0 27 -7t-1.5 -11t-3.5 -10l-28 -70q-4 -12 -15 -12h-8l-20 2l-27 2q-12 2 -20 2h-13q-37 0 -51 -33q-6 -14 -10 -33.5t-21 -78.5l-112 -447h145l4 -16 l-4 -4q-25 -44 -29 -45.5t-11 -6t-31 -4.5h-91l-139 -567q-11 -47 -18 -66q-14 -25 -58.5 -24.5t-44.5 29.5zM195 68q0 44 22 127l107 360q22 44 22 104q0 18 -12 19q-16 0 -49 -19q-16 -6 -20.5 -6t-4.5 7.5t6 13.5l142 94q16 10 22 10q27 0 27 -53q0 -33 -29 -133 l-72 -258q-4 -6 -9 -26t-10 -37t-8 -31.5t-7 -25.5q-19 -61 -19 -97.5t31 -36.5q45 0 94 65q21 27 53 82q10 10 15 11q6 -1 6 -10q0 -20 -47 -91q-37 -47 -76 -82q-68 -61 -123 -61q-61 0 -61 74zM393 1049l74 49h2q19 0 34 -37t15 -61.5t-26.5 -50t-65.5 -29.5 q-9 68 -33 129z" />
<glyph unicode="&#xfb02;" horiz-adv-x="872" d="M-258 25q0 11 15 60t28.5 101t36.5 136l84 331h-146l29 76h131l80 320q33 128 50.5 166t32.5 64t43 53.5t60.5 48t67.5 32.5t64.5 12t29.5 -7q0 -9 -4 -21l-29 -70q-4 -12 -16 -12h-6l-21 2l-26 2q-12 2 -20 2h-13q-29 0 -42 -17.5t-28 -76.5l-125 -498h146l4 -16 q-6 -6 -17.5 -24.5t-13.5 -21.5t-4 -4t-9 -5.5t-32 -4.5h-90l-139 -567q-9 -42 -19 -66q-14 -25 -58 -24.5t-44 29.5zM194.5 82q0.5 84 30.5 205l217 827q37 141 37 187.5t-28 46.5l-48 -13q-8 -4 -14 -4t-6 10t18 17l152 61l2 2q14 6 27 6q30 1 30 -32q0 -20 -8 -54l-2 -4 l-266 -1005l-24 -113q-9 -41 -9 -69q0 -68 41 -68q35 0 80 49t113 160q2 8 10 8t8 -9t-20.5 -46t-44.5 -69q-47 -65 -87 -103q-74 -74 -135 -74q-74 0 -73.5 84z" />
</font>
</defs>
</svg>
